<svg width="18" height="18" viewBox="0 0 18 18" fill="none" xmlns="http://www.w3.org/2000/svg">
<g clip-path="url(#clip0_4690_18767)">
<path fill-rule="evenodd" clip-rule="evenodd" d="M11.9144 5.30343C11.9147 7.38252 10.1943 9.06259 8.09433 9.06259C5.99471 9.06259 4.27468 7.38257 4.27468 5.30343C4.27468 3.22463 5.99475 1.54457 8.09433 1.54457C10.1943 1.54457 11.9144 3.22462 11.9144 5.30343ZM13.5 5.30338C13.5 2.3851 11.0817 0 8.09433 0C5.10771 0 2.68901 2.38506 2.68901 5.30338C2.68901 7.13466 3.64092 8.75218 5.08615 9.70546C2.09803 10.947 0 13.8526 0 17.2278C0 17.6479 0.348492 18 0.79247 18C1.23718 18 1.58531 17.6482 1.58531 17.2278C1.58531 13.571 4.61243 10.6065 8.31853 10.6065C8.3812 10.6065 8.43877 10.5982 8.49034 10.5867C11.2918 10.3864 13.5 8.09186 13.5 5.30338Z" fill="#5ABA86"/>
<path fill-rule="evenodd" clip-rule="evenodd" d="M9.00011 13.0139C9.00011 13.3637 9.33153 13.6528 9.7462 13.6528H17.2539C17.6694 13.6528 18 13.3641 18 13.0139C18 12.6637 17.6694 12.375 17.2539 12.375H9.7462C9.33169 12.375 9.00011 12.6635 9.00011 13.0139ZM17.2537 16.7223H9.7461C9.33159 16.7223 9 17.0105 9 17.3611C9 17.7118 9.33153 18 9.7461 18H17.2537C17.6693 18 17.9999 17.7117 17.9999 17.3611C17.9999 17.0106 17.6693 16.7223 17.2537 16.7223Z" fill="#5ABA86"/>
<path fill-rule="evenodd" clip-rule="evenodd" d="M9.00011 15.1773C9.00011 15.5272 9.33153 15.8163 9.7462 15.8163H17.2539C17.6694 15.8163 18 15.5275 18 15.1773C18 14.8271 17.6694 14.5385 17.2539 14.5385H9.7462C9.33169 14.5385 9.00011 14.827 9.00011 15.1773Z" fill="#5ABA86"/>
</g>
<defs>
<clipPath id="clip0_4690_18767">
<rect width="18" height="18" fill="white"/>
</clipPath>
</defs>
</svg>
