<svg width="18" height="18" viewBox="0 0 18 18" fill="none" xmlns="http://www.w3.org/2000/svg">
<path fill-rule="evenodd" clip-rule="evenodd" d="M15.345 7.46773L16.0056 6.96883L15.345 6.53442V7.46773ZM15.345 4.7595L17.6618 6.28308C17.8709 6.42185 18 6.6659 18 6.9291V15.4398C17.9978 16.8515 17.0209 18 15.8193 18H2.17851C0.976882 18 0 16.8515 0 15.4422V6.88125C0 6.62044 0.157992 6.3094 0.36494 6.17062C0.619106 5.99824 2.25266 4.85061 2.64551 4.57454V1.61027C2.64551 0.722588 3.37539 0 4.27216 0H13.7183C14.6151 0 15.345 0.722588 15.345 1.61027V4.7595ZM2.64551 6.38437C2.406 6.55229 2.1462 6.73432 1.90829 6.90076L2.64551 7.51221V6.38437ZM4.04671 8.67438L8.66984 12.5088L13.9364 8.5315V1.60788C13.9275 1.58634 13.8496 1.51456 13.7205 1.51456H4.27439C4.14532 1.51456 4.06521 1.58634 4.05631 1.61506V8.54903C4.05631 8.59173 4.05303 8.6336 4.04671 8.67438ZM8.22034 14.0497L1.40858 8.39939V15.4398C1.40858 16.0045 1.76017 16.4831 2.17851 16.4831H15.8193C16.2376 16.4831 16.5892 16.0045 16.5892 15.4398V8.37943L9.05481 14.0713C8.93242 14.1622 8.79 14.2076 8.64981 14.2076C8.49849 14.2076 8.34495 14.155 8.22034 14.0497ZM11.7556 4.69906H6.24141C5.852 4.69906 5.53601 4.3593 5.53601 3.94058C5.53601 3.52186 5.852 3.1821 6.24141 3.1821H11.7533C12.1428 3.1821 12.4587 3.52186 12.4587 3.94058C12.4587 4.3593 12.1428 4.69906 11.7556 4.69906ZM6.24141 7.27374H11.7556C12.1428 7.27374 12.4587 6.93637 12.4587 6.51526C12.4587 6.09654 12.1428 5.75678 11.7533 5.75678H6.24141C5.852 5.75678 5.53601 6.09654 5.53601 6.51526C5.53601 6.93398 5.852 7.27374 6.24141 7.27374Z" fill="#5ABA86"/>
</svg>
