<svg width="18" height="18" viewBox="0 0 18 18" fill="none" xmlns="http://www.w3.org/2000/svg">
<path fill-rule="evenodd" clip-rule="evenodd" d="M0.747036 5.815C0.346746 5.815 0 5.46826 0 5.06796V1.17913C0 0.519579 0.519586 0 1.17914 0H5.06797C5.46826 0 5.815 0.346739 5.815 0.747039C5.815 1.14734 5.46826 1.49408 5.06797 1.49408H1.49408V5.06796C1.49408 5.46826 1.14734 5.815 0.747036 5.815ZM17.253 5.815C16.8527 5.815 16.5059 5.46826 16.5059 5.06796V1.49408H12.9321C12.5318 1.49408 12.185 1.14734 12.185 0.747039C12.185 0.346739 12.5318 0 12.9321 0H16.8209C17.4804 0 18 0.519579 18 1.17913V5.06796C18 5.46387 17.7008 5.815 17.253 5.815ZM5.06797 18H1.17914C0.519586 18 0 17.4804 0 16.8209V12.932C0 12.5317 0.346746 12.185 0.747036 12.185C1.14734 12.185 1.49408 12.5317 1.49408 12.932V16.5059H5.06797C5.46826 16.5059 5.815 16.8527 5.815 17.253C5.815 17.7007 5.46387 18 5.06797 18ZM16.8209 18H12.9321C12.5318 18 12.185 17.6532 12.185 17.253C12.185 16.8527 12.5318 16.5059 12.9321 16.5059H16.5059V12.932C16.5059 12.5317 16.8527 12.185 17.253 12.185C17.6533 12.185 18 12.5317 18 12.932V16.8209C18 17.4804 17.4804 18 16.8209 18ZM5.80734 6.85743C5.80734 7.74207 6.15876 8.5395 6.73096 9.11821C5.08759 9.95061 3.94935 11.6536 3.94935 13.6413C3.94935 14.0416 4.29608 14.3883 4.69638 14.3883C5.09669 14.3883 5.44343 14.0416 5.44343 13.6413C5.44343 11.665 7.04109 10.0674 9.0173 10.0674C10.9935 10.0674 12.5912 11.665 12.5912 13.6413C12.5912 14.0416 12.9379 14.3883 13.3382 14.3883C13.7342 14.3883 14.0853 14.0891 14.0853 13.6413C14.0853 11.6536 12.947 9.95061 11.3037 9.11821C11.8759 8.5395 12.2273 7.74207 12.2273 6.85743C12.2273 5.07443 10.8003 3.64746 9.0173 3.64746C7.23431 3.64746 5.80734 5.07443 5.80734 6.85743ZM7.20251 6.90064C7.20251 7.77695 7.84084 8.51888 8.70275 8.68207C8.80682 8.67553 8.9117 8.67221 9.0173 8.67221C9.14368 8.67221 9.26908 8.67696 9.39328 8.68631C10.2596 8.5318 10.8753 7.78014 10.8753 6.85743C10.8321 5.86362 10.0111 5.04264 9.0173 5.04264C8.02349 5.04264 7.20251 5.86362 7.20251 6.90064Z" fill="#5ABA86"/>
</svg>
