<svg width="18" height="18" viewBox="0 0 18 18" fill="none" xmlns="http://www.w3.org/2000/svg">
<path fill-rule="evenodd" clip-rule="evenodd" d="M12.3095 12.1343H16.5475V10.1983H12.3095C11.793 10.1983 11.381 10.6371 11.381 11.1663C11.381 11.6955 11.793 12.1343 12.3095 12.1343ZM12.3095 8.66674H16.5475V5.86361H15.4983L15.4987 5.86594H1.4525V16.4685H16.5475V13.6658H12.3095C10.999 13.6658 9.92849 12.5512 9.92849 11.1663C9.92849 9.78143 10.999 8.66674 12.3095 8.66674ZM1.4525 4.33207H13.7222L13.2683 1.95355L13.238 1.79491V1.53151H1.4525V4.33207ZM14.6905 1.63264V1.6422L15.2039 4.33207H16.4464C17.3 4.33207 18 5.05862 18 5.96473V16.3674C18 17.2734 17.2999 18 16.4464 18H1.55362C0.70004 18 0 17.2735 0 16.3674V1.63264C0 0.726534 0.700024 0 1.55362 0H13.1369C13.9904 0 14.6905 0.726536 14.6905 1.63264Z" fill="#5ABA86"/>
</svg>
