<svg width="18" height="18" viewBox="0 0 18 18" fill="none" xmlns="http://www.w3.org/2000/svg">
<path fill-rule="evenodd" clip-rule="evenodd" d="M3.31844 5.09519V5.60922H2.65475C1.18856 5.60922 0 6.67511 0 7.98998V15.6192C0 16.9341 1.18856 18 2.65475 18H15.3453C16.8114 18 18 16.9341 18 15.6192V7.98998C18 6.67511 16.8114 5.60922 15.3453 5.60922H14.6816V5.09519C14.6816 2.2812 12.1378 0 9 0C5.86217 0 3.31844 2.2812 3.31844 5.09519ZM12.9117 5.09519V5.60922H5.08827V5.09519C5.08827 3.15776 6.8396 1.58717 9 1.58717C11.1604 1.58717 12.9117 3.15776 12.9117 5.09519ZM1.76983 7.98998C1.76983 7.5517 2.16603 7.19639 2.65475 7.19639H15.3453C15.834 7.19639 16.2302 7.5517 16.2302 7.98998V15.6192C16.2302 16.0575 15.834 16.4128 15.3453 16.4128H2.65475C2.16603 16.4128 1.76983 16.0575 1.76983 15.6192V7.98998ZM6.11035 11.7778C6.11035 13.3119 7.35401 14.5556 8.88813 14.5556C10.4222 14.5556 11.6659 13.3119 11.6659 11.7778C11.6659 10.2437 10.4222 9 8.88813 9C7.35401 9 6.11035 10.2437 6.11035 11.7778ZM10.0577 11.7778C10.0577 12.4237 9.53407 12.9474 8.88813 12.9474C8.24219 12.9474 7.71854 12.4237 7.71854 11.7778C7.71854 11.1318 8.24219 10.6082 8.88813 10.6082C9.53407 10.6082 10.0577 11.1318 10.0577 11.7778Z" fill="#5ABA86"/>
</svg>
