<svg width="19" height="19" viewBox="0 0 19 19" fill="none" xmlns="http://www.w3.org/2000/svg">
<path fill-rule="evenodd" clip-rule="evenodd" d="M14.9923 12.1908C14.6266 11.8131 14.6349 11.2296 14.9978 10.8326L15.0036 10.8262L15.5826 10.2472H7.84055C7.32276 10.2472 6.89993 9.82424 6.89993 9.30623C6.89993 8.78823 7.32276 8.36523 7.84055 8.36523H15.5826L15.0037 7.78619C14.6387 7.42097 14.6387 6.82193 15.0037 6.45671C15.3689 6.09148 15.9676 6.09148 16.3328 6.45671L18.5148 8.63958C18.5491 8.66334 18.5791 8.69473 18.601 8.72995C18.6052 8.73561 18.6086 8.74095 18.6116 8.74574L18.6531 8.7873V8.81291C18.6555 8.81787 18.6576 8.8225 18.6595 8.82669C18.6647 8.83421 18.6688 8.84104 18.672 8.84657C18.6846 8.8633 18.6923 8.8787 18.697 8.88901L18.6979 8.89081L18.7013 8.89536C18.711 8.90825 18.7346 8.94152 18.7431 8.99012C18.7443 8.99395 18.7458 8.99892 18.7473 9.00406C18.7483 9.00812 18.751 9.01794 18.753 9.03113C18.7537 9.03303 18.7543 9.03502 18.755 9.03705C18.757 9.0438 18.7597 9.05317 18.7617 9.06464C18.7629 9.06847 18.7645 9.07345 18.7658 9.07859C18.767 9.08266 18.7697 9.09247 18.7716 9.10565C18.7723 9.10756 18.773 9.10954 18.7736 9.11158L18.7744 9.11394C18.7805 9.12979 18.7858 9.14734 18.789 9.16693C18.793 9.19091 18.7929 9.21325 18.7928 9.22082V9.22237V9.23328C18.8021 9.29258 18.8021 9.35714 18.7928 9.41644V9.47353L18.7828 9.49377C18.7806 9.52049 18.7745 9.54237 18.7693 9.55714C18.7679 9.56365 18.7666 9.56844 18.7659 9.571C18.7648 9.575 18.7636 9.57902 18.7625 9.58235C18.7604 9.59792 18.757 9.61143 18.7537 9.62233C18.7532 9.62688 18.7526 9.63166 18.7518 9.63654C18.7489 9.65382 18.7404 9.69632 18.7092 9.73796C18.707 9.74189 18.7042 9.74648 18.701 9.75148C18.6997 9.75445 18.6985 9.75756 18.697 9.76071C18.693 9.76968 18.6865 9.78251 18.6767 9.79672C18.6679 9.8215 18.6559 9.84155 18.6449 9.85691C18.6378 9.86982 18.631 9.87922 18.6268 9.88479L18.6248 9.88743C18.6183 9.89898 18.6121 9.90749 18.6082 9.91277C18.5947 9.93067 18.5794 9.94554 18.5772 9.94769L18.5307 9.99426L18.5214 10.0036L16.3283 12.1975C16.1443 12.3701 15.9106 12.4647 15.6636 12.4647C15.4223 12.4647 15.1843 12.3829 14.9944 12.193L14.9923 12.1908ZM18.7647 9.09198C18.7663 9.09542 18.768 9.09894 18.7696 9.10256L18.7691 9.10067C18.7677 9.0958 18.7662 9.09161 18.7654 9.08912L18.7647 9.08739M18.7163 9.72447C18.7163 9.72447 18.7167 9.72386 18.7157 9.72577L18.7163 9.72447ZM16.9116 14.3186C16.9116 13.8007 17.3344 13.3777 17.8522 13.3777C18.37 13.3777 18.7928 13.8007 18.7928 14.3186V15.9957C18.7928 17.5385 17.5319 18.8 15.9895 18.8H3.60307C2.06083 18.8 0.799805 17.5385 0.799805 15.9957V3.60439C0.799805 2.06155 2.06083 0.800049 3.60307 0.800049H15.9895C17.5319 0.800049 18.7928 2.06155 18.7928 3.60439V4.34973C18.7928 4.86772 18.37 5.29071 17.8522 5.29071C17.3344 5.29071 16.9116 4.86773 16.9116 4.34973V3.60439C16.9116 3.09754 16.4963 2.68203 15.9895 2.68203H3.60307C3.09642 2.68203 2.68106 3.09754 2.68106 3.60439V15.9957C2.68106 16.5025 3.09642 16.918 3.60307 16.918H15.9895C16.4963 16.918 16.9116 16.5025 16.9116 15.9957V14.3186Z" fill="#5ABA86"/>
</svg>
