<svg width="16" height="16" viewBox="0 0 16 16" fill="none" xmlns="http://www.w3.org/2000/svg">
<path fill-rule="evenodd" clip-rule="evenodd" d="M3.00673 12.4868C3.90502 13.2882 5.42125 14.0988 7.99169 15.1379C10.1902 14.1998 11.7084 13.4683 12.712 12.6657C13.6922 11.8818 14.147 11.0589 14.2222 9.86364V3.19971C11.803 2.75911 10.2696 2.18861 7.99475 0.910969C5.73532 2.14781 4.211 2.7608 1.77778 3.20141L1.77779 9.8632C1.84742 10.9603 2.14964 11.7221 3.00673 12.4868ZM8.00001 16C12.6763 14.0188 14.8288 12.811 15 9.88853V2.52254C12.1424 2.05602 10.6164 1.50309 8 0C5.38388 1.45749 3.86714 2.06678 1 2.52254L1.00001 9.88853C1.15535 12.4719 2.50358 13.8083 8.00001 16ZM11.188 5.76622C11.2442 5.82007 11.2894 5.88458 11.3208 5.95628C11.3522 6.02816 11.3692 6.10569 11.3703 6.18441C11.3715 6.26308 11.3569 6.34109 11.3275 6.4139C11.2982 6.48666 11.2547 6.55265 11.2 6.60818L7.46308 10.4008C7.40732 10.4574 7.34092 10.502 7.26796 10.5324C7.19501 10.5628 7.1168 10.5785 7.03789 10.5785C6.959 10.5785 6.88078 10.5628 6.80783 10.5324C6.73486 10.502 6.66846 10.4573 6.6127 10.4008L4.62003 8.37815C4.5125 8.26522 4.45325 8.11385 4.45695 7.95644C4.46067 7.79905 4.52697 7.65075 4.63954 7.54302C4.75192 7.43547 4.90157 7.37666 5.05601 7.3776C5.21046 7.37858 5.35938 7.43926 5.47042 7.54823L5.47352 7.55132L7.03879 9.13938L10.3504 5.77819C10.4608 5.6662 10.6107 5.603 10.7668 5.60075C10.923 5.59852 11.0745 5.65761 11.188 5.76622Z" fill="#005C2F"/>
</svg>
