<svg width="30" height="30" viewBox="0 0 30 30" fill="none" xmlns="http://www.w3.org/2000/svg">
<rect width="30" height="30" rx="15" fill="#5DCF8A"/>
<path d="M22.41 21.8573H21.9553C22.1073 16.8733 20.6546 13.7813 19.3806 12.046C18.9133 11.4107 18.438 10.908 18.006 10.5153C19.9353 11.0033 21.476 12.5907 21.9606 13.27C22.024 13.358 22.1093 13.4253 22.2073 13.4627C22.3053 13.5 22.412 13.5067 22.5133 13.4813C22.72 13.43 22.8786 13.2527 22.918 13.0307C23.0673 12.19 23.1066 10.2433 22.194 8.89933C21.6886 8.15466 20.982 7.71066 20.094 7.58133C18.19 7.304 16.858 8.26333 16.182 8.93266C15.38 7.84733 13.6213 6.41066 10.9913 7.25399C8.11333 8.17666 7.564 11.3953 7.676 12.968C7.684 13.08 7.72267 13.1873 7.78733 13.276C7.85267 13.3647 7.94067 13.4313 8.04067 13.4667C8.09733 13.4867 8.15466 13.4967 8.21199 13.4967C8.36333 13.4967 8.51133 13.4287 8.61533 13.3033C9.48733 12.2547 10.5493 11.5907 11.69 11.1673C11.5133 11.3553 11.3507 11.5593 11.2093 11.7793C10.5573 12.7927 9.85466 14.9533 12.4687 18.0433C12.5193 18.1026 12.5807 18.15 12.6493 18.1826C12.7187 18.2153 12.7927 18.2326 12.8687 18.2326C12.9053 18.2326 12.9407 18.2286 12.978 18.22C13.07 18.2 13.1553 18.154 13.2253 18.088C13.296 18.0213 13.3487 17.9366 13.3787 17.842C13.484 17.5066 13.5807 17.118 13.694 16.67C14.092 15.08 14.6233 12.9573 16.0507 11.0907C17.21 13.9753 17.406 16.6313 16.6293 18.998C16.1193 20.5533 15.3153 21.52 15.0007 21.8573H14.7973C14.728 21.642 14.6147 21.4 14.444 21.164H14.7293C15.026 21.164 15.2673 20.908 15.2673 20.5926C15.2673 20.2773 15.026 20.0213 14.7293 20.0213H9.16666C8.87 20.0213 8.62866 20.2773 8.62866 20.5926C8.62866 20.908 8.87 21.164 9.16666 21.164H9.404C9.22266 21.4013 9.09866 21.6426 9.02133 21.8573H7.538C7.24134 21.8573 7 22.1133 7 22.4286C7 22.744 7.24134 23 7.538 23H22.41C22.7066 23 22.948 22.744 22.948 22.4286C22.948 22.1133 22.7066 21.8573 22.41 21.8573ZM19.9466 8.71399C20.54 8.80066 20.9893 9.07933 21.32 9.56799C21.6926 10.1173 21.8593 10.87 21.908 11.5507C20.9193 10.5953 19.3586 9.48799 17.5326 9.26599C18.1086 8.88533 18.9233 8.56533 19.9466 8.71399ZM8.848 11.5087C9.05333 10.3787 9.64333 8.87933 11.3013 8.348C11.7427 8.206 12.152 8.146 12.528 8.146C13.7247 8.146 14.5893 8.76066 15.1073 9.34333C13.038 9.49666 10.7127 9.96799 8.848 11.5087ZM12.6533 16.3773L12.6347 16.4513C11.8053 15.2327 11.252 13.7387 12.0967 12.426C12.75 11.4107 14.0487 10.812 15.0033 10.6593C13.5867 12.65 13.0353 14.852 12.6533 16.3773ZM11.9467 21.1646C12.8933 21.1646 13.3633 21.534 13.5927 21.858H10.2573C10.514 21.5313 11.01 21.1646 11.9467 21.1646ZM16.4113 21.8573C16.8093 21.2893 17.2713 20.484 17.622 19.442C18.208 17.6973 18.5666 14.972 17.3233 11.404C18.862 12.8127 21.0726 15.8887 20.88 21.8573H16.4113Z" fill="white"/>
</svg>
