<svg width="30" height="30" viewBox="0 0 30 30" fill="none" xmlns="http://www.w3.org/2000/svg">
<rect width="30" height="30" rx="15" fill="#AC66F2"/>
<path fill-rule="evenodd" clip-rule="evenodd" d="M7 10.7547C7 12.7953 8.652 14.4473 10.6927 14.4473C12.7313 14.4473 14.3853 12.828 14.3853 10.7853C14.3853 8.74467 12.7333 7.09267 10.6927 7.09267C8.654 7.09267 7 8.71134 7 10.7547ZM8.22933 10.7547C8.22933 9.40934 9.348 8.29133 10.6927 8.29133C12.038 8.29133 13.156 9.40934 13.156 10.7547C13.156 12.0993 12.038 13.2173 10.6927 13.2173C9.348 13.2173 8.22933 12.0993 8.22933 10.7547ZM18.076 14.3853H20.5387C21.902 14.3853 23 13.2873 23 11.924V9.46133C23 8.098 21.902 7 20.5387 7H18.076C16.7127 7 15.6147 8.098 15.6147 9.46133V11.924C15.6147 13.2873 16.7127 14.3853 18.076 14.3853ZM16.844 9.46133C16.844 8.794 17.408 8.22933 18.076 8.22933H20.5387C21.2067 8.22933 21.7707 8.794 21.7707 9.46133V11.924C21.7707 12.592 21.2067 13.156 20.5387 13.156H18.076C17.408 13.156 16.844 12.592 16.844 11.924V9.46133ZM7 20.5387C7 21.902 8.09799 23 9.46132 23H11.924C13.2873 23 14.3853 21.902 14.3853 20.5387V18.076C14.3853 16.7127 13.2873 15.6147 11.924 15.6147H9.46132C8.09799 15.6147 7 16.7127 7 18.076V20.5387ZM8.22933 18.076C8.22933 17.408 8.79399 16.844 9.46132 16.844H11.924C12.592 16.844 13.156 17.408 13.156 18.076V20.5387C13.156 21.2067 12.592 21.7707 11.924 21.7707H9.46132C8.79399 21.7707 8.22933 21.2067 8.22933 20.5387V18.076ZM18.076 23H20.5387C21.902 23 23 21.902 23 20.5387V18.076C23 16.7127 21.902 15.6147 20.5387 15.6147H18.076C16.7127 15.6147 15.6147 16.7127 15.6147 18.076V20.5387C15.6147 21.902 16.7127 23 18.076 23ZM16.844 18.076C16.844 17.408 17.408 16.844 18.076 16.844H20.5387C21.2067 16.844 21.7707 17.408 21.7707 18.076V20.5387C21.7707 21.2067 21.2067 21.7707 20.5387 21.7707H18.076C17.408 21.7707 16.844 21.2067 16.844 20.5387V18.076Z" fill="white"/>
</svg>
