<svg width="16" height="16" viewBox="0 0 16 16" fill="none" xmlns="http://www.w3.org/2000/svg">
<g clip-path="url(#clip0_7143_22475)">
<path fill-rule="evenodd" clip-rule="evenodd" d="M7.99987 1.05171L9.73305 2.52871C9.98931 2.74709 10.308 2.87908 10.6435 2.90586L12.9135 3.087L13.0946 5.35693C13.1214 5.69256 13.2534 6.01119 13.4718 6.26744L14.9488 8.00063L13.4718 9.73384C13.2534 9.99011 13.1214 10.3087 13.0946 10.6443L12.9135 12.9142L10.6435 13.0954C10.308 13.1221 9.98931 13.2541 9.73305 13.4725L7.99987 14.9495L6.26671 13.4725C6.01045 13.2541 5.69183 13.1221 5.3562 13.0954L3.08626 12.9142L2.90513 10.6443C2.87834 10.3087 2.74635 9.99011 2.52797 9.73384L1.05098 8.00063L2.52797 6.26744C2.74635 6.01119 2.87834 5.69256 2.90513 5.35693L3.08626 3.087L5.35619 2.90586C5.69183 2.87908 6.01045 2.74709 6.26671 2.52871L7.99987 1.05171ZM7.48099 0.442816C7.78 0.188007 8.21979 0.188007 8.51875 0.442816L10.252 1.91982C10.3802 2.02901 10.5394 2.095 10.7073 2.10839L12.9771 2.28953C13.3688 2.32079 13.6797 2.63175 13.711 3.02336L13.8922 5.2933C13.9055 5.46111 13.9714 5.62042 14.0807 5.74855L15.5578 7.48172C15.8125 7.78073 15.8125 8.22055 15.5578 8.51951L14.0807 10.2527C13.9714 10.3808 13.9055 10.5402 13.8922 10.7079L13.711 12.9779C13.6797 13.3695 13.3688 13.6805 12.9771 13.7117L10.7073 13.8929C10.5394 13.9062 10.3802 13.9722 10.252 14.0814L8.51875 15.5584C8.21979 15.8133 7.78 15.8133 7.48099 15.5584L5.74782 14.0814C5.61969 13.9722 5.46037 13.9062 5.29257 13.8929L3.02263 13.7117C2.63102 13.6805 2.32005 13.3695 2.2888 12.9779L2.10766 10.7079C2.09427 10.5402 2.02827 10.3808 1.91908 10.2527L0.442085 8.51951C0.187274 8.22047 0.187274 7.78073 0.442085 7.48172L1.91908 5.74855C2.02827 5.62042 2.09427 5.46111 2.10766 5.2933L2.2888 3.02336C2.32005 2.63175 2.63102 2.32079 3.02263 2.28953L5.29257 2.10839C5.46037 2.095 5.61969 2.02901 5.74782 1.91982L7.48099 0.442816ZM6.17131 4.80032C6.92743 4.80032 7.54275 5.41561 7.54275 6.17175C7.54275 6.92789 6.92743 7.54317 6.17131 7.54317C5.4152 7.54317 4.79988 6.92789 4.79988 6.17175C4.79988 5.41561 5.4152 4.80032 6.17131 4.80032ZM5.74306 5.9906C5.7213 6.04846 5.71147 6.11004 5.71418 6.17175C5.71931 6.28932 5.76962 6.40046 5.8546 6.48189C5.93959 6.56332 6.05271 6.60875 6.17042 6.6089C6.28812 6.60903 6.40133 6.56375 6.48649 6.48246C6.57164 6.40117 6.62217 6.29018 6.62754 6.1726C6.63036 6.11103 6.62066 6.04932 6.59901 5.99147C6.57736 5.93375 6.54423 5.88089 6.50159 5.83618C6.45896 5.79147 6.40771 5.75589 6.35095 5.73161C6.29418 5.70732 6.23309 5.69475 6.17134 5.69461C6.10958 5.69461 6.04846 5.70704 5.99164 5.73118C5.93483 5.75547 5.88353 5.7909 5.8408 5.83546C5.79808 5.88003 5.76483 5.9329 5.74306 5.9906ZM10.2856 5.25761C10.4068 5.25761 10.5231 5.30575 10.6088 5.39146C10.6945 5.47717 10.7426 5.59347 10.7426 5.7146C10.7426 5.83589 10.6945 5.95218 10.6088 6.03789L6.03737 10.6093C6.01883 10.6285 5.9987 10.6459 5.97722 10.6615C5.94983 10.6815 5.92025 10.6984 5.88898 10.7117C5.83322 10.7357 5.77322 10.7483 5.71252 10.7489C5.67511 10.7492 5.63788 10.7449 5.60168 10.7362C5.57914 10.7307 5.55699 10.7236 5.53545 10.7147C5.50317 10.7017 5.47259 10.6848 5.44428 10.6648C5.4233 10.6499 5.40357 10.6331 5.3853 10.6149C5.34238 10.5721 5.30844 10.521 5.28546 10.4649C5.27432 10.4376 5.26587 10.4095 5.26018 10.3808C5.2541 10.3502 5.25115 10.319 5.25143 10.2877C5.25195 10.227 5.26457 10.167 5.28852 10.1113C5.29869 10.0876 5.31081 10.065 5.32472 10.0434C5.34362 10.0142 5.36583 9.98717 5.39097 9.96291L9.96238 5.39146C10.0481 5.30575 10.1644 5.25761 10.2856 5.25761ZM9.82843 8.45747C9.07234 8.45747 8.45703 9.07277 8.45703 9.82886C8.45703 10.585 9.07234 11.2003 9.82843 11.2003C10.5845 11.2003 11.1999 10.585 11.1999 9.82886C11.1999 9.07277 10.5845 8.45747 9.82843 8.45747ZM9.82843 10.286C9.71074 10.2808 9.59963 10.2303 9.5182 10.1451C9.43678 10.0601 9.39127 9.94673 9.39127 9.82886C9.39127 9.71108 9.43678 9.59775 9.5182 9.5126C9.59963 9.42744 9.71074 9.37704 9.82843 9.37171C9.94611 9.37704 10.0573 9.42744 10.1387 9.5126C10.2202 9.59775 10.2657 9.71108 10.2657 9.82886C10.2657 9.94673 10.2202 10.0601 10.1387 10.1451C10.0573 10.2303 9.94611 10.2808 9.82843 10.286Z" fill="#005C2F"/>
</g>
<defs>
<clipPath id="clip0_7143_22475">
<rect width="16" height="16" fill="white"/>
</clipPath>
</defs>
</svg>
