<svg width="16" height="16" viewBox="0 0 16 16" fill="none" xmlns="http://www.w3.org/2000/svg">
<g clip-path="url(#clip0_7143_22471)">
<path fill-rule="evenodd" clip-rule="evenodd" d="M0.8 8C0.8 4.02355 4.02355 0.8 8 0.8C11.9764 0.8 15.2 4.02355 15.2 8C15.2 11.9764 11.9764 15.2 8 15.2C4.02355 15.2 0.8 11.9764 0.8 8ZM8 0C3.58172 0 0 3.58172 0 8C0 12.4183 3.58172 16 8 16C12.4183 16 16 12.4183 16 8C16 3.58172 12.4183 0 8 0ZM9.85289 4.38699C10.0598 4.16648 10.0179 3.84472 9.7592 3.66831C9.50044 3.4919 9.12293 3.52765 8.91591 3.74816L4.44444 8.512H9.05911L6.14712 11.6144C5.94014 11.8349 5.98209 12.1567 6.24081 12.3331C6.49953 12.5095 6.87705 12.4737 7.08403 12.2532L11.5556 7.48939H6.94083L9.85289 4.38699Z" fill="#005C2F"/>
</g>
<defs>
<clipPath id="clip0_7143_22471">
<rect width="16" height="16" fill="white"/>
</clipPath>
</defs>
</svg>
