<svg width="16" height="16" viewBox="0 0 16 16" fill="none" xmlns="http://www.w3.org/2000/svg">
<g clip-path="url(#clip0_7143_22479)">
<path fill-rule="evenodd" clip-rule="evenodd" d="M15.1111 8C15.1111 11.9274 11.9274 15.1111 8 15.1111C4.07264 15.1111 0.888889 11.9274 0.888889 8C0.888889 4.07264 4.07264 0.888889 8 0.888889C11.9274 0.888889 15.1111 4.07264 15.1111 8ZM16 8C16 12.4183 12.4183 16 8 16C3.58172 16 0 12.4183 0 8C0 3.58172 3.58172 0 8 0C12.4183 0 16 3.58172 16 8ZM10.7224 5.56918V4.56254C10.7224 3.91359 10.1996 3.38589 9.55662 3.38589H8.98356C8.94284 3.56522 8.7842 3.69842 8.59468 3.69842H7.37088C7.18125 3.69842 7.0226 3.56522 6.98193 3.38589H6.40895C5.76591 3.38589 5.24308 3.91359 5.24308 4.56254V11.262C5.24308 11.9093 5.76591 12.4387 6.40895 12.4387H9.55662C10.0602 12.4387 10.4901 12.1146 10.6528 11.6622C10.9536 11.6372 11.2419 11.5681 11.5112 11.4614C11.4117 12.4612 10.573 13.2448 9.55662 13.2448H6.40895C5.32588 13.2448 4.44444 12.355 4.44444 11.262V4.56254C4.44444 3.46787 5.32588 2.57812 6.40895 2.57812H9.55662C10.6396 2.57812 11.5211 3.46787 11.5211 4.56254V5.7673C11.2697 5.6667 11.0018 5.5989 10.7224 5.56918ZM7.41175 11.409C7.25046 11.409 7.11972 11.5507 7.11972 11.7249C7.11972 11.899 7.25046 12.0409 7.41175 12.0409H8.55371C8.71499 12.0409 8.84572 11.899 8.84572 11.7249C8.84572 11.5507 8.71499 11.409 8.55371 11.409H7.41175ZM12.683 11.4724L12.0004 10.8811C11.9782 10.8593 11.9588 10.8348 11.9425 10.8084C11.5029 11.1237 10.9748 11.2963 10.429 11.2963C9.7344 11.2963 9.06827 11.0167 8.57716 10.5191C8.08603 10.0215 7.81012 9.34667 7.81012 8.64294C7.81012 7.93923 8.08603 7.26434 8.57716 6.76674C9.06827 6.26913 9.7344 5.98958 10.429 5.98958C11.1236 5.98958 11.7896 6.26913 12.2808 6.76674C12.7719 7.26434 13.0478 7.93923 13.0478 8.64294C13.0478 9.24187 12.8479 9.81991 12.4857 10.2855C12.5029 10.2979 12.5192 10.3116 12.5343 10.3267L13.0912 10.8092L13.0982 10.8025L13.2166 10.9183C13.2532 10.954 13.2822 10.9967 13.3023 11.0439C13.3223 11.0912 13.3329 11.142 13.3333 11.1933C13.3338 11.2448 13.3241 11.2957 13.3049 11.3434C13.2857 11.3909 13.2572 11.4341 13.2214 11.4705C13.1855 11.5068 13.1428 11.5356 13.0959 11.555C13.049 11.5745 12.9987 11.5844 12.9479 11.5838C12.8972 11.5834 12.847 11.5727 12.8004 11.5524C12.7567 11.5334 12.7169 11.5063 12.683 11.4724ZM12.3172 10.2187C12.6621 9.7944 12.8592 9.26418 12.8742 8.71141C12.8589 9.26427 12.6616 9.7944 12.3163 10.2186L12.3172 10.2187ZM11.8852 10.6332L11.8853 10.6343C11.4665 10.9488 10.9565 11.1214 10.429 11.1214C9.78018 11.1214 9.15796 10.8603 8.6992 10.3955C8.24044 9.93067 7.98271 9.30027 7.98271 8.64294C7.98271 8.61976 7.98303 8.59662 7.98367 8.57351C7.98306 8.5962 7.98275 8.61893 7.98275 8.64168C7.98275 9.29902 8.24048 9.92942 8.69924 10.3942C9.15796 10.859 9.78018 11.1202 10.429 11.1202C10.9565 11.1202 11.4664 10.9476 11.8852 10.6332ZM10.429 10.522C10.9209 10.522 11.3926 10.3241 11.7404 9.97173C12.0883 9.61929 12.2836 9.14133 12.2836 8.64294C12.2836 8.14456 12.0883 7.6666 11.7404 7.31419C11.3926 6.96179 10.9209 6.7638 10.429 6.7638C9.93707 6.7638 9.46533 6.96179 9.11751 7.31419C8.76966 7.6666 8.57426 8.14456 8.57426 8.64294C8.57426 9.14133 8.76966 9.61929 9.11751 9.97173C9.46533 10.3241 9.93707 10.522 10.429 10.522ZM12.4563 8.64168C12.4563 8.66101 12.456 8.68031 12.4555 8.69958C12.456 8.68073 12.4563 8.66185 12.4563 8.64294C12.4563 8.09819 12.2427 7.57573 11.8625 7.19053C11.4823 6.80533 10.9667 6.58892 10.429 6.58892C9.89129 6.58892 9.37564 6.80533 8.99547 7.19053C8.62868 7.56212 8.41696 8.06144 8.40246 8.5853C8.41665 8.06098 8.62842 7.56116 8.99547 7.18927C9.37564 6.80407 9.89129 6.58766 10.429 6.58766C10.9667 6.58766 11.4823 6.80407 11.8625 7.18927C12.2427 7.57447 12.4563 8.09692 12.4563 8.64168Z" fill="#005C2F"/>
</g>
<defs>
<clipPath id="clip0_7143_22479">
<rect width="16" height="16" fill="white"/>
</clipPath>
</defs>
</svg>
