<svg width="30" height="30" viewBox="0 0 30 30" fill="none" xmlns="http://www.w3.org/2000/svg">
<rect width="30" height="30" rx="15" fill="url(#paint0_radial_7143_22427)"/>
<path opacity="0.8" d="M27.1875 21.0938C27.1875 24.4592 24.4592 27.1875 21.0937 27.1875C17.7283 27.1875 15 24.4592 15 21.0937C15 17.7283 17.7283 15 21.0938 15C24.4592 15 27.1875 17.7283 27.1875 21.0938Z" fill="url(#paint1_linear_7143_22427)"/>
<path fill-rule="evenodd" clip-rule="evenodd" d="M9.95385 7.49652C9.38896 7.79195 8.96568 8.2895 8.77518 8.89677L8.26442 10.5186C7.47141 10.9304 7 11.7639 7 12.7142V20.5234C7 21.8759 7.93463 22.9048 9.29991 22.9048H20.3727C21.7135 22.9048 23 21.8993 23 20.5234V12.7144C23.0016 11.6719 22.2713 10.7927 21.3751 10.4298C21.3589 10.4224 21.3408 10.4166 21.3301 10.4133C21.3153 10.4087 21.2991 10.4041 21.2872 10.4007L21.2689 10.3955L11.7841 7.33269L11.783 7.33236C11.1764 7.14209 10.5195 7.20069 9.95385 7.49652ZM10.5196 8.60045C10.8006 8.45353 11.1067 8.40126 11.3843 8.48932L16.7104 10.1868H13.5819H9.6535L9.95811 9.23908L9.95837 9.23828C9.96069 9.23088 9.96309 9.22353 9.96555 9.21624C10.0578 8.9434 10.2492 8.74182 10.5196 8.60045ZM21.7571 12.6342V20.3061H21.7555V20.4373C21.7555 21.1122 21.2192 21.6588 20.548 21.6588H9.47513C8.80307 21.6588 8.26137 21.1113 8.26137 20.4373V12.6342C8.26137 11.9608 8.80248 11.4174 9.47513 11.4174H18.1674H20.5494C21.1321 11.4174 21.6123 11.8254 21.7296 12.3734C21.7477 12.4574 21.7571 12.5447 21.7571 12.6342ZM10.191 15.1551H19.0443C19.3872 15.1551 19.6672 14.875 19.6672 14.532C19.6672 14.1892 19.3872 13.9091 19.0443 13.9091H10.191C9.84804 13.9091 9.56798 14.1891 9.56798 14.532C9.56798 14.875 9.84804 15.1551 10.191 15.1551ZM10.191 17.0164H14.0336C14.3765 17.0164 14.6565 16.7363 14.6565 16.3934C14.6565 16.0505 14.3765 15.7705 14.0336 15.7705H10.191C9.84804 15.7705 9.56798 16.0505 9.56798 16.3934C9.56798 16.7363 9.84803 17.0164 10.191 17.0164ZM14.8471 20.3369H15.3389C15.6819 20.3369 15.9619 20.0567 15.9619 19.7138C15.9619 19.3708 15.6819 19.0908 15.3389 19.0908H14.8471C14.5041 19.0908 14.224 19.3708 14.224 19.7138C14.224 20.0567 14.5041 20.3369 14.8471 20.3369ZM17.2602 20.3369H17.7521C18.096 20.3369 18.3768 20.0572 18.3751 19.7134C18.3749 19.3706 18.0949 19.0908 17.7521 19.0908H17.2602C16.9173 19.0908 16.6372 19.3708 16.6372 19.7138C16.6372 20.0567 16.9173 20.3369 17.2602 20.3369ZM19.6749 20.3369H20.1667C20.5097 20.3369 20.7898 20.0567 20.7898 19.7138C20.7898 19.3708 20.5096 19.0908 20.1667 19.0908H19.6749C19.3319 19.0908 19.0519 19.3708 19.0519 19.7138C19.0519 20.0567 19.3319 20.3369 19.6749 20.3369Z" fill="white"/>
<defs>
<radialGradient id="paint0_radial_7143_22427" cx="0" cy="0" r="1" gradientUnits="userSpaceOnUse" gradientTransform="translate(15 15) rotate(178.675) scale(15.004)">
<stop stop-color="#F99A7C"/>
<stop offset="0.0001" stop-color="#58CAE3"/>
<stop offset="0.541667" stop-color="#58CAE3"/>
<stop offset="0.895833" stop-color="#5BD1EC"/>
<stop offset="1" stop-color="#3EBFDC"/>
</radialGradient>
<linearGradient id="paint1_linear_7143_22427" x1="27.1875" y1="25.0679" x2="21.0938" y2="15" gradientUnits="userSpaceOnUse">
<stop stop-color="white" stop-opacity="0"/>
<stop offset="1" stop-color="white" stop-opacity="0.21"/>
</linearGradient>
</defs>
</svg>
