<svg width="30" height="30" viewBox="0 0 30 30" fill="none" xmlns="http://www.w3.org/2000/svg">
<rect width="30" height="30" rx="15" fill="#787EFC"/>
<path fill-rule="evenodd" clip-rule="evenodd" d="M8.22661 10.5614L7.06081 19.5882L7.05934 19.5953C6.87354 20.5331 7.12994 21.4959 7.74608 22.1752C8.23201 22.7095 8.86894 23 9.54347 23C9.74347 23 9.94714 22.9714 10.1507 22.9172L10.1804 22.9089L13.699 18.6028L13.7098 18.5999C13.9764 18.5313 14.2491 18.4983 14.5231 18.4983H15.9227C16.2213 18.4983 16.516 18.5383 16.7973 18.6164L16.81 18.6198L19.736 22.8432L19.8133 22.8705C20.6847 23.1221 21.59 22.8567 22.24 22.1539C22.866 21.4748 23.128 20.5057 22.9407 19.5575L22.9393 19.5503L21.7833 10.5916L21.774 10.533C21.3367 8.44651 19.684 7 17.7587 7H12.2494C10.3233 7 8.66961 8.44794 8.23127 10.5363L8.22661 10.5614ZM13.3504 17.3988L9.8324 21.7055L9.82001 21.7085C9.35694 21.8193 8.91561 21.6526 8.59541 21.3012C8.24794 20.9181 8.10761 20.3684 8.21868 19.836L8.22341 19.8109L9.32688 11.2711L9.38947 10.7866L9.39147 10.7774C9.71354 9.30072 10.8804 8.25752 12.2494 8.25752H17.7587C19.128 8.25752 20.2947 9.30072 20.6167 10.7774L20.6187 10.7866L21.7707 19.7429L21.78 19.8012C21.892 20.3379 21.7493 20.8885 21.3953 21.2729C21.3267 21.347 21.2533 21.412 21.176 21.4677C20.8773 21.683 20.52 21.7577 20.1613 21.6679L20.1467 21.6643L17.222 17.4423L17.1447 17.4148C16.752 17.2983 16.3373 17.2408 15.918 17.2408H14.521C14.1348 17.2408 13.7513 17.2901 13.3805 17.3903L13.3504 17.3988ZM11.7655 13.4684V14.5543C11.7655 14.8003 11.9525 15 12.1827 15C12.4129 15 12.5999 14.8003 12.5999 14.5543V13.4684H13.1755H13.6166C13.8454 13.4684 14.0338 13.2683 14.0338 13.0227C14.0338 12.7768 13.8468 12.5771 13.6166 12.5771H12.5999V11.493C12.5999 11.247 12.4129 11.0473 12.1827 11.0473C11.9525 11.0473 11.7655 11.247 11.7655 11.493V12.5567V12.5771H10.7505C10.5203 12.5771 10.3333 12.7768 10.3333 13.0227C10.3333 13.2686 10.5203 13.4684 10.7505 13.4684H11.7655ZM16.3753 11.3551L15.6907 12.6225C15.5726 12.8397 15.5724 13.1125 15.6907 13.3297L16.3753 14.598C16.494 14.8172 16.7147 14.9527 16.95 14.9527H18.3187C18.554 14.9527 18.7747 14.8172 18.8933 14.598L19.578 13.3302C19.696 13.113 19.6967 12.8402 19.578 12.623L18.8933 11.3547C18.7747 11.1355 18.554 11 18.3187 11H16.95C16.7133 11 16.494 11.1368 16.3753 11.3551ZM17.0467 14.0632L16.4607 12.9773L17.0467 11.8913H18.2207L18.806 12.9773L18.2207 14.0632H17.0467Z" fill="white"/>
</svg>
