<svg width="30" height="30" viewBox="0 0 30 30" fill="none" xmlns="http://www.w3.org/2000/svg">
<rect width="30" height="30" rx="15" fill="#F28866"/>
<path d="M7.228 20.5298C7.228 21.8922 8.32533 23 9.67533 23H20.2587C21.6087 23 22.706 21.8922 22.706 20.5298V18.6889H7.228V20.5298ZM8.44867 19.922H21.4853V20.5308C21.4853 21.2135 20.9347 21.769 20.2587 21.769H9.67533C8.99867 21.769 8.44867 21.2135 8.44867 20.5308V19.922ZM22.6327 13.0133C22.63 12.9507 22.5573 11.4641 21.5507 9.97947C20.6287 8.62012 18.7253 7 14.894 7C11.056 7 9.192 8.62526 8.304 9.98871C7.33466 11.4774 7.302 12.9661 7.30133 13.0298L7.292 13.655H22.6593L22.6327 13.0133ZM8.60733 12.423C8.70266 11.9641 8.90333 11.3111 9.32333 10.6663C10.3753 9.05133 12.2493 8.23306 14.8933 8.23306C19.7773 8.23306 21.0053 11.1047 21.3113 12.424H8.60733V12.423ZM9.60733 17.6273C10.6773 17.6273 11.118 17 11.41 16.5842C11.6673 16.2187 11.7847 16.0513 12.2413 16.0513C12.6907 16.0513 12.8127 16.2135 13.0813 16.5698C13.4173 17.0154 13.878 17.6263 15.0373 17.6263C16.1913 17.6263 16.606 17.0257 16.8807 16.6283C17.112 16.2947 17.2053 16.155 17.7407 16.1622C18.2007 16.1622 18.3407 16.3285 18.6213 16.6601C18.9667 17.0677 19.4387 17.6253 20.5373 17.6253C22.2067 17.6253 22.878 16.4363 23 15.808L21.8013 15.5709C21.7953 15.6047 21.63 16.3932 20.536 16.3932C20.0013 16.3932 19.84 16.2033 19.5493 15.8593C19.218 15.4671 18.7627 14.9291 17.7467 14.9291H17.7113C16.5653 14.9291 16.1527 15.5257 15.8787 15.923C15.656 16.2464 15.5547 16.3932 15.0367 16.3932C14.482 16.3932 14.3293 16.1909 14.0527 15.8224C13.7333 15.3983 13.296 14.8173 12.24 14.8173C11.1527 14.8173 10.708 15.4507 10.4133 15.8696C10.1607 16.2289 10.0447 16.3932 9.606 16.3932C8.49466 16.3932 8.07733 15.7177 8.06 15.6889L8.06534 15.6971L7 16.3008C7.03067 16.3553 7.75466 17.6273 9.60733 17.6273Z" fill="white"/>
</svg>
