<svg width="30" height="30" viewBox="0 0 30 30" fill="none" xmlns="http://www.w3.org/2000/svg">
<rect width="30" height="30" rx="15" fill="#71B0EB"/>
<path fill-rule="evenodd" clip-rule="evenodd" d="M21.1503 11.4073C21.401 11.9967 21.5693 12.6167 21.6517 13.2493L20.3521 13.486C20.2883 12.9413 20.1471 12.4073 19.9317 11.9007C19.6284 11.1873 19.1844 10.542 18.6262 10.004C18.6114 9.99 18.5966 9.97533 18.5817 9.96133C18.2299 11.3347 17.5646 12.704 16.6463 13.9433C16.7521 13.9993 16.8598 14.052 16.9691 14.1007L16.4555 14.194L15.9275 14.29C15.7789 14.3173 15.6709 14.4467 15.6709 14.598V14.8747V15.1087C15.4579 15.3353 15.2381 15.552 15.0123 15.76C15.297 16.2267 15.5178 16.7253 15.6709 17.2427V18.338H15.6708C15.2845 18.338 14.9173 18.42 14.5859 18.568C14.5253 17.8813 14.3221 17.2153 13.9881 16.608C12.817 17.4773 11.5337 18.1087 10.2345 18.4467C11.0787 19.2153 12.112 19.7233 13.23 19.928C13.0844 20.2573 13.0035 20.622 13.0035 21.0053C13.0035 21.0687 13.0057 21.1313 13.0101 21.194C11.5578 20.934 10.2218 20.2547 9.15509 19.2167C7.76535 17.8653 7 16.0687 7 14.1573C7 12.2453 7.76535 10.448 9.15509 9.096C10.5444 7.74466 12.3918 7 14.3569 7C16.3223 7 18.1693 7.74466 19.5591 9.096C20.2395 9.752 20.7807 10.538 21.1503 11.4073ZM14.3573 8.284C15.4529 8.284 16.5044 8.566 17.4237 9.09533C17.166 10.4927 16.5227 11.9147 15.5765 13.1913C15.5322 13.1513 15.4885 13.11 15.4455 13.068C14.1865 11.8433 13.6557 10.098 14.0271 8.40133C14.0351 8.36466 14.0397 8.328 14.0412 8.292C14.1461 8.28667 14.2515 8.284 14.3573 8.284ZM14.5121 13.976C14.5881 14.05 14.6657 14.1213 14.7447 14.1913C14.5747 14.374 14.4 14.55 14.221 14.72C14.1507 14.6447 14.0783 14.5707 14.0038 14.498C12.5477 13.082 10.5281 12.424 8.51016 12.6847C8.77591 11.6793 9.31418 10.7573 10.0884 10.0047C10.8176 9.29534 11.7006 8.78933 12.6643 8.51733C12.3543 10.518 13.03 12.534 14.5121 13.976ZM8.31986 14.1567C8.31986 14.11 8.32041 14.0633 8.32153 14.0167C10.0514 13.6747 11.8208 14.1907 13.0705 15.406C13.1229 15.4573 13.1741 15.5093 13.2239 15.562C11.9944 16.4833 10.6325 17.104 9.28121 17.3393C8.65535 16.3993 8.31986 15.3027 8.31986 14.1567ZM16.2764 19.5567V14.8767L23 13.6667V20.132H22.9988C22.9669 21.098 22.1631 21.8747 21.1794 21.8747C20.1756 21.8747 19.359 21.066 19.359 20.0727C19.359 19.0793 20.1756 18.2713 21.1794 18.2713C21.4814 18.2713 21.7665 18.344 22.0175 18.4733V16.898L17.2588 17.7547V20.756C17.2907 20.896 17.3076 21.044 17.3076 21.1987C17.3076 21.694 17.0984 22.1727 16.7337 22.5113C16.3923 22.8293 15.9541 23 15.4891 23C15.4502 23 15.4112 22.9993 15.3719 22.9967C14.4586 22.9407 13.7269 22.2167 13.6703 21.3127C13.6388 20.81 13.8127 20.3307 14.1604 19.9647C14.5033 19.604 14.9868 19.3967 15.4872 19.3967C15.7751 19.3967 16.0413 19.4533 16.2764 19.5567ZM15.4329 22.026C15.6679 22.0407 15.8907 21.9613 16.061 21.8033C16.2314 21.6447 16.3252 21.43 16.3252 21.1987C16.3252 20.816 16.1058 20.3693 15.4872 20.3693C15.2535 20.3693 15.0365 20.462 14.8764 20.6307C14.7164 20.7993 14.6363 21.02 14.6509 21.2527C14.6765 21.6613 15.0201 22.0007 15.4329 22.026ZM17.2588 15.6887V16.766L22.0175 15.91V14.832L17.2588 15.6887ZM20.3415 20.0727C20.3415 20.53 20.7175 20.902 21.1795 20.902C21.6415 20.902 22.0176 20.53 22.0176 20.0727C22.0176 19.6153 21.6415 19.2433 21.1795 19.2433C20.7174 19.2433 20.3415 19.6153 20.3415 20.0727Z" fill="white"/>
</svg>
