<svg width="30" height="30" viewBox="0 0 30 30" fill="none" xmlns="http://www.w3.org/2000/svg">
<rect width="30" height="30" rx="15" fill="#F2A966"/>
<path fill-rule="evenodd" clip-rule="evenodd" d="M18.7653 8.04C18.8153 8.04 18.864 8.06066 18.898 8.09666L21.936 11.2533C22.022 11.3433 22.022 11.486 21.936 11.5753L20.504 13.0653L19.0027 11.5053V19.0027L20.0033 19.878V14.016C20.1413 14.1587 20.3227 14.232 20.504 14.232C20.6853 14.232 20.8667 14.1607 21.004 14.016L22.6427 12.3127C23.1193 11.8173 23.1193 11.0167 22.6427 10.5207L19.6047 7.362C19.3827 7.13133 19.0793 7 18.7653 7H18.756L17.446 7.01133C17.3273 7.01267 17.2113 7.05667 17.122 7.138C16.816 7.414 16.0073 8.05267 15.0571 8.05267C14.1097 8.05267 13.3014 7.41733 12.9935 7.14C12.9028 7.05667 12.7855 7.01266 12.6651 7.01266H11.2425C10.9267 7.01266 10.625 7.14267 10.403 7.37534L7.3576 10.5353C6.8808 11.0313 6.8808 11.832 7.3576 12.3273L8.99753 14.032C9.13513 14.1747 9.31646 14.248 9.4978 14.248C9.6792 14.248 9.86053 14.1767 9.99807 14.032V14.4453L10.9986 14.1113V11.522L9.4978 13.0813L8.0658 11.5933C7.9798 11.504 7.9798 11.3607 8.0658 11.2713L11.1081 8.11C11.144 8.07267 11.1909 8.05267 11.2409 8.05267H12.4838C13.0059 8.49 13.9315 9.09267 15.0571 9.09267C16.184 9.09267 17.1113 8.488 17.6333 8.04933L18.764 8.04H18.7653ZM13.8483 22.852L11.7737 19.1973L11.449 22.644C11.4465 22.752 11.3881 22.8413 11.3145 22.9013C11.2397 22.9613 11.1395 23 11.0347 23H10.2319C10.1272 23 10.0269 22.9613 9.95213 22.9013C9.87847 22.8413 9.82007 22.752 9.81767 22.644L9.38247 17.738C9.0176 17.3793 8.8076 16.922 8.8076 16.4147C8.8076 15.306 9.84833 14.43 11.1124 14.43C11.2244 14.43 11.3567 14.466 11.4453 14.586L12.9827 16.5693C13.3016 16.9653 13.4947 17.37 13.679 17.756C13.8609 18.1373 14.0343 18.5007 14.3117 18.82C14.5911 19.1413 14.838 19.4173 15.0307 19.6213C15.1271 19.724 15.2087 19.8067 15.2735 19.868C15.3408 19.9313 15.3793 19.9613 15.3933 19.97C15.4756 20.0133 15.5439 20.0413 15.6177 20.054C15.6913 20.0673 15.7807 20.068 15.904 20.0433C16.1587 19.9933 16.5367 19.8453 17.1847 19.53L17.1893 19.528L17.194 19.526C17.528 19.388 17.9173 19.4427 18.2947 19.578C18.6747 19.7147 19.0707 19.944 19.4367 20.196C20.1693 20.7 20.8113 21.312 21.0213 21.5207L21.0227 21.522L21.024 21.5233C21.2633 21.7753 21.3647 22.126 21.2047 22.4547L21.2033 22.4573L21.2027 22.46C21.0207 22.7993 20.682 23 20.2607 23H14.1749C14.0352 23 13.9197 22.9187 13.8578 22.8607L13.8483 22.852ZM20.4273 22.1453L20.4327 22.136C20.4367 22.128 20.44 22.118 20.4393 22.1087C20.4387 22.1047 20.4373 22.0993 20.434 22.0927C20.4307 22.0853 20.424 22.0753 20.41 22.062L20.408 22.0607L20.4067 22.0587C19.946 21.604 19.3387 21.0907 18.7787 20.7187C18.498 20.5327 18.2353 20.386 18.0127 20.2987C17.786 20.2107 17.6367 20.1987 17.5547 20.2273C16.8993 20.5513 16.4293 20.748 16.042 20.8153C15.6401 20.886 15.3307 20.8173 15.0055 20.6333C14.9188 20.5913 14.8149 20.5093 14.7063 20.412C14.5909 20.3087 14.4567 20.1753 14.3111 20.0233C14.0199 19.7187 13.6771 19.3313 13.3382 18.936C12.9017 18.426 12.6818 17.886 12.5211 17.4907C12.4325 17.2733 12.3619 17.1 12.2829 17L10.9122 15.2107C10.1624 15.2853 9.6104 15.8027 9.6104 16.4147C9.6104 16.7273 9.7646 17.0273 10.0213 17.2713C10.1229 17.3387 10.1615 17.4113 10.1895 17.4633L10.2029 17.4887L10.6337 22.2253H10.6861L11.0866 18.2473C11.0893 18.1393 11.1476 18.05 11.2211 17.9907C11.2959 17.93 11.3961 17.892 11.5009 17.892H11.6303C11.7701 17.892 11.8855 17.9733 11.9474 18.0313L11.9573 18.0407L14.3858 22.2253H20.2607C20.3207 22.2253 20.3607 22.21 20.386 22.1933C20.3993 22.1853 20.4087 22.176 20.4153 22.1687C20.416 22.1673 20.4167 22.1667 20.418 22.1653C20.4193 22.1627 20.4207 22.1607 20.422 22.1593C20.4227 22.1573 20.424 22.156 20.424 22.156V22.1553L20.4273 22.1453Z" fill="white"/>
</svg>
