<?xml version="1.0" standalone="no"?><!DOCTYPE svg PUBLIC "-//W3C//DTD SVG 1.1//EN" "http://www.w3.org/Graphics/SVG/1.1/DTD/svg11.dtd"><svg t="1720625125749" class="icon" viewBox="0 0 1024 1024" version="1.1" xmlns="http://www.w3.org/2000/svg" p-id="4260" xmlns:xlink="http://www.w3.org/1999/xlink" width="200" height="200"><path d="M512 972.8c-29.866667 0-55.466667-12.8-76.8-29.866667L85.333333 593.066667C21.333333 529.066667-8.533333 435.2 4.266667 345.6c17.066667-132.266667 123.733333-238.933333 256-256 98.133333-12.8 187.733333 21.333333 251.733333 89.6 64-68.266667 153.6-102.4 251.733333-89.6 132.266667 17.066667 238.933333 123.733333 256 256 12.8 89.6-17.066667 174.933333-72.533333 243.2l-358.4 358.4c-21.333333 17.066667-46.933333 25.6-76.8 25.6zM298.666667 170.666667h-25.6C174.933333 183.466667 98.133333 260.266667 85.333333 354.133333c-8.533333 64 12.8 132.266667 59.733334 174.933334l349.866666 349.866666c4.266667 4.266667 12.8 4.266667 17.066667 4.266667 4.266667 0 8.533333 0 17.066667-4.266667l358.4-358.4c42.666667-46.933333 59.733333-106.666667 51.2-170.666666-12.8-93.866667-89.6-170.666667-183.466667-179.2-68.266667-8.533333-136.533333 12.8-183.466667 64-29.866667 34.133333-89.6 34.133333-119.466666 0C409.6 192 358.4 170.666667 298.666667 170.666667z" fill="#8a8a8a" p-id="4261"></path></svg>