<svg width="176" height="230" viewBox="0 0 176 230" fill="none" xmlns="http://www.w3.org/2000/svg">
<path d="M170 124C170 77.0558 131.944 39 85 39C38.0558 39 0 77.0558 0 124C0 170.944 38.0558 209 85 209C131.944 209 170 170.944 170 124Z" fill="white"/>
<path fill-rule="evenodd" clip-rule="evenodd" d="M45.0522 45.0259C45.0522 45.0259 23.6191 35.9716 27.0604 30.0601C30.5018 24.1485 55.7871 30.1673 60.046 28.5631C64.3045 26.9589 82.8962 17.7531 103.526 45.0259C124.155 72.2985 131.794 58.7181 138.011 95.9145C144.228 133.111 132.644 131.274 147.007 160.266C152.589 171.53 146.605 192.131 144.007 196.183C141.409 200.234 125.068 203.434 129.015 211.149C132.963 218.863 114.446 218.037 114.021 215.638C114.021 215.638 110.914 209.749 111.023 208.156C111.132 206.562 104.553 206.768 105.025 209.651C105.025 209.651 105.574 223.671 96.0294 218.63C86.4847 213.59 91.5318 211.149 91.5318 211.149C91.5318 211.149 89.5119 208.015 85.5339 214.141C81.5558 220.267 71.3147 207.47 69.0419 209.651C66.7691 211.833 48.5028 194.641 48.8478 182.083C48.8478 182.083 13.2169 159.458 22.5625 131.831C26.7997 119.307 45.9969 118.577 45.8497 114.738C45.0354 93.5006 68.3332 114.935 49.5517 124.349C39.3903 129.442 32.9416 133.746 32.3558 140.18C31.1719 153.177 47.9185 163.972 48.8478 165.62C49.7772 167.269 50.5669 150.146 58.546 140.81C66.2139 131.833 47.259 110.6 70.54 88.4308C70.54 88.4308 62.6361 81.8734 55.548 83.9414C48.4598 86.0095 29.2519 82.7337 27.0604 79.4517C24.869 76.1698 42.873 67.5642 43.5524 64.4873C44.2318 61.4107 42.2795 48.6276 45.0522 45.0259Z" fill="#FFD344"/>
<path fill-rule="evenodd" clip-rule="evenodd" d="M27.694 31.3353C27.694 31.3353 49.8125 39.4562 53.1319 37.9458C56.4513 36.4354 56.8224 31.6011 54.1085 30.2867C49.944 28.2694 29.5532 26.4686 27.694 31.3353Z" fill="white"/>
<path fill-rule="evenodd" clip-rule="evenodd" d="M27.3473 77.9005C27.3473 77.9005 50.5083 73.5707 53.5303 75.6118C56.5526 77.6531 56.1143 82.482 53.2197 83.3269C48.7777 84.6234 28.3713 83.0083 27.3473 77.9005Z" fill="white"/>
<path d="M53.6205 150.414C51.4726 155.42 49.8899 160.65 48.903 166.003" stroke="black" stroke-width="0.2"/>
<path d="M65.2045 48.197C67.4465 48.197 69.2641 46.8843 69.2641 45.265C69.2641 43.6457 67.4465 42.3333 65.2045 42.3333C62.9624 42.3333 61.1448 43.6457 61.1448 45.265C61.1448 46.8843 62.9624 48.197 65.2045 48.197Z" fill="black"/>
<path d="M67.2341 72.1033C69.3516 72.1033 71.0682 70.7909 71.0682 69.1715C71.0682 67.5522 69.3516 66.2395 67.2341 66.2395C65.1166 66.2395 63.4003 67.5522 63.4003 69.1715C63.4003 70.7909 65.1166 72.1033 67.2341 72.1033Z" fill="black"/>
<path d="M71.145 57.4931C71.145 57.4931 77.9688 57.25 75.9247 61.9156" stroke="#1B1B1B" stroke-width="0.2"/>
<path d="M72.6198 56.0163C72.6198 56.0163 76.0763 55.3023 74.348 53.0664" stroke="#1B1B1B" stroke-width="0.2"/>
<path d="M70.4074 58.2286C71.222 58.2286 71.8822 57.2381 71.8822 56.0163C71.8822 54.7944 71.222 53.804 70.4074 53.804C69.5928 53.804 68.9326 54.7944 68.9326 56.0163C68.9326 57.2381 69.5928 58.2286 70.4074 58.2286Z" fill="#FF8282"/>
<path fill-rule="evenodd" clip-rule="evenodd" d="M108.979 22.0237C109.812 21.5966 115.503 18.5601 115.745 12.8619C115.935 8.39306 112.646 5.32794 111.496 4.25622L111.492 4.25229C110.548 3.37372 107.66 0.685883 103.544 0.638353C97.6817 0.569673 92.5861 5.89105 91.5174 11.4059C91.3106 12.4755 90.4395 17.7548 93.8037 21.0003C94.0827 21.2696 94.3743 21.5089 94.6757 21.7216L94.7199 22.7036L94.0452 24.7344L99.396 23.3162C100.438 23.4217 101.437 23.4201 102.298 23.4187H102.3C103.857 23.417 106.32 23.3868 108.979 22.0237Z" fill="#FF9063"/>
<path d="M107.873 13.2028C107.232 13.9488 106.2 14.3583 104.776 14.4313C103.314 14.4723 102.297 14.8631 101.726 15.6038C101.437 15.9395 101.179 15.9765 100.95 15.7149C100.651 15.4586 100.711 15.088 101.127 14.6031C101.538 14.0489 102.344 13.6392 103.544 13.3738C104.745 13.1086 105.569 12.7148 106.018 12.1927C106.584 11.3826 106.545 10.6359 105.901 9.95247C105.49 9.6 104.962 9.53539 104.317 9.75865C103.842 9.93409 103.493 9.92571 103.269 9.73345C102.821 9.34891 102.822 8.89558 103.27 8.37341C104.338 7.28128 105.685 7.33616 107.31 8.53807C108.855 10.0599 109.043 11.6148 107.873 13.2028ZM100.483 17.8424C100.088 18.1513 99.654 18.1668 99.179 17.8889C98.7264 17.4351 98.6764 17.003 99.029 16.5927C99.451 16.1772 99.917 16.1244 100.429 16.4343C100.775 16.8614 100.793 17.3308 100.483 17.8424Z" fill="white"/>
<path d="M114.732 174.582L146.666 181.678V213.611L114.732 205.628V174.582Z" fill="#326563"/>
<path d="M114.733 174.582L69.4941 184.339V213.611L114.733 205.628V174.582Z" fill="#489D97"/>
<path d="M101.427 230.465L69.4941 216.272V184.339L101.427 192.323V230.465Z" fill="#85ECE8"/>
<path d="M101.427 230.465L146.666 216.272V181.678L101.427 192.323V230.465Z" fill="#64C2BB"/>
<path d="M118.269 163.292L158.348 186.801L176.16 214.404L135.416 191.593L118.269 163.292Z" fill="#00ECD1"/>
<path d="M128.105 199.274L112.287 169.576L118.269 163.292L135.417 191.593L128.105 199.274Z" fill="#85ECE8"/>
<path d="M128.105 199.274L170.178 220.689L176.16 214.404L135.417 191.593L128.105 199.274Z" fill="#30C2B9"/>
</svg>
