<?xml version="1.0" standalone="no"?><!DOCTYPE svg PUBLIC "-//W3C//DTD SVG 1.1//EN" "http://www.w3.org/Graphics/SVG/1.1/DTD/svg11.dtd"><svg t="1720793118659" class="icon" viewBox="0 0 1024 1024" version="1.1" xmlns="http://www.w3.org/2000/svg" p-id="2417" xmlns:xlink="http://www.w3.org/1999/xlink" width="200" height="200"><path d="M507 825.3c-274.3 0-497-295.1-497-308.7h59.7s228.5 262.9 437.2 261.2c237.9-2 440.3-262.1 440.3-262.1h66.6c0.1-0.2-208.2 309.6-506.8 309.6z m0 0M507 198.7c-285.4 0-497 304.1-497 317.8h59.7s154.7-265.6 437.2-271.3c253-5.1 440.3 270.2 440.3 270.2h66.6c0.1 0.1-208.2-316.7-506.8-316.7z m0 0" fill="#707070" p-id="2418"></path><path d="M506 343.8c-61.7 0-118.8 32.9-149.6 86.4-30.9 53.5-30.9 119.3 0 172.8 30.9 53.4 87.9 86.4 149.6 86.4 95.4 0 172.8-77.3 172.8-172.8S601.4 343.8 506 343.8z m0 298.3c-44.8 0-86.3-23.9-108.7-62.8-22.4-38.8-22.4-86.7 0-125.5C419.7 414.9 461.2 391 506 391c69.3 0 125.5 56.2 125.5 125.5S575.3 642.1 506 642.1z m0 0" fill="#707070" p-id="2419"></path></svg>