<svg width="80" height="80" viewBox="0 0 80 80" fill="none" xmlns="http://www.w3.org/2000/svg">
<g clip-path="url(#clip0_4343_18231)">
<path d="M80 40C80 17.9086 62.0914 0 40 0C17.9086 0 0 17.9086 0 40C0 62.0914 17.9086 80 40 80C62.0914 80 80 62.0914 80 40Z" fill="#F4F6F6"/>
<path d="M40.0019 76C35.5836 76.0015 29.2218 74.9955 25.2398 73.0566C21.2579 71.1178 17.7581 68.2958 15 64.8C17.7581 61.3042 21.2579 58.4822 25.2398 56.5434C29.2218 54.6045 35.5836 53.5985 40.0019 53.6C44.4197 53.598 50.7811 54.6038 54.7626 56.5427C58.744 58.4816 62.243 61.3039 65 64.8C62.243 68.2961 58.744 71.1184 54.7626 73.0573C50.7811 74.9962 44.4197 76.002 40.0019 76ZM40.0019 49.8667C36.0913 49.8667 32.3409 48.2933 29.5757 45.4928C26.8105 42.6922 25.2571 38.8939 25.2571 34.9333C25.2571 30.9728 26.8105 27.1744 29.5757 24.3739C32.3409 21.5733 36.0913 20 40.0019 20C43.9124 20 47.6628 21.5733 50.428 24.3739C53.1932 27.1744 54.7467 30.9728 54.7467 34.9333C54.7467 38.8939 53.1932 42.6922 50.428 45.4928C47.6628 48.2933 43.9124 49.8667 40.0019 49.8667Z" fill="#B4C3C3"/>
</g>
<defs>
<clipPath id="clip0_4343_18231">
<rect width="80" height="80" fill="white"/>
</clipPath>
</defs>
</svg>
