<svg width="72" height="18" viewBox="0 0 72 18" fill="none" xmlns="http://www.w3.org/2000/svg">
<path d="M25.4195 2.3836C24.5953 1.62728 23.4218 1.24902 21.8996 1.24902H17.5683V13.309H20.0201V9.12542H21.8996C22.7678 9.12542 23.5257 9.00344 24.1739 8.75967C24.8218 8.51572 25.3158 8.18769 25.6553 7.77503C26.3221 6.98743 26.6557 6.08116 26.6557 5.05586C26.6557 4.03093 26.2434 3.1403 25.4195 2.3836ZM23.5879 6.64983C23.2191 7.00987 22.6854 7.18962 21.9876 7.18962H20.0201V6.63989V3.18501H21.9876C22.6856 3.18501 23.2191 3.36512 23.5879 3.72479C23.9565 4.08502 24.1411 4.57219 24.1411 5.1874C24.1411 5.80262 23.9565 6.28997 23.5879 6.64983Z" fill="#808080"/>
<path d="M28.1024 12.0824C27.1635 11.1727 26.6939 9.98052 26.6939 8.50595C26.6939 7.03175 27.1692 5.84528 28.1198 4.94656C29.0702 4.0482 30.2499 3.59894 31.6585 3.59894C33.067 3.59894 34.2464 4.0482 35.197 4.94656C36.1474 5.8451 36.6229 7.03157 36.6229 8.50595C36.6229 9.9807 36.1447 11.1727 35.1883 12.0824C34.232 12.9924 33.0465 13.4475 31.6324 13.4475C30.2178 13.4475 29.0413 12.9924 28.1024 12.0824ZM31.6324 11.3912C32.3164 11.3912 32.9044 11.1409 33.3973 10.6397C33.8898 10.1386 34.1363 9.43025 34.1363 8.51441C34.1363 7.59858 33.8928 6.89321 33.406 6.39795C32.9192 5.90287 32.3306 5.65506 31.6411 5.65506C30.9512 5.65506 30.3685 5.90287 29.8936 6.39795C29.4181 6.8934 29.1806 7.60171 29.1806 8.52306C29.1806 9.44478 29.4179 10.1531 29.8936 10.6484C30.3685 11.1436 30.9483 11.3912 31.6324 11.3912Z" fill="#808080"/>
<path d="M38.604 12.0996C37.7229 11.201 37.2826 10.009 37.2826 8.52306C37.2826 7.03727 37.7229 5.8451 38.604 4.94656C39.485 4.04802 40.6271 3.59875 42.0296 3.59875C43.2004 3.59875 44.1798 3.88134 44.9684 4.4456C45.7566 5.01004 46.2838 5.81052 46.5508 6.84723H43.9077C43.5949 6.05245 42.9689 5.65506 42.0296 5.65506C41.3225 5.65506 40.7689 5.91152 40.369 6.42389C39.9692 6.93645 39.7692 7.6363 39.7692 8.52306C39.7692 9.41019 39.9692 10.11 40.369 10.6224C40.7689 11.135 41.3223 11.3912 42.0296 11.3912C42.9573 11.3912 43.5831 10.9883 43.9077 10.1818H46.5508C46.2725 11.1839 45.7364 11.9789 44.9423 12.5663C44.148 13.1536 43.1774 13.4476 42.0296 13.4476C40.6271 13.4476 39.485 12.9981 38.604 12.0996Z" fill="#808080"/>
<path d="M60.0948 13.0851L56.1995 3.73706H58.9746L61.4827 10.475L64.0736 3.73706H66.7063L60.8438 17.8359H58.057L60.0948 13.0851Z" fill="#808080"/>
<path d="M71.9998 11.1788V13.1427C70.9235 13.3903 69.8379 13.3979 69.3756 13.3149C68.8211 13.2154 68.3667 13.0165 68.0125 12.7181C67.4813 12.2703 67.2156 11.5302 67.2156 10.4971V2.53777C67.2156 2.26659 67.3813 2.02245 67.6346 1.92071L69.6587 1.10809V3.72846H72V5.70842H69.6587V10.497C69.6587 10.807 69.7337 11.0281 69.884 11.1598C69.9777 11.2424 70.1146 11.2985 70.2942 11.3302C70.6382 11.3903 71.2849 11.3385 71.9998 11.1788Z" fill="#808080"/>
<path d="M10.0341 3.72498V10.2339L6.2629 11.7478L2.49164 10.2339V3.72498H10.0341ZM12.5258 1.24902H0V10.8758C0 11.497 0.379569 12.056 0.959292 12.2887L5.72872 14.2035C5.89999 14.2721 6.08144 14.3067 6.2629 14.3067C6.44435 14.3067 6.6258 14.2721 6.79707 14.2035L11.5665 12.2887C12.1462 12.056 12.5258 11.497 12.5258 10.8758V1.24902Z" fill="#808080"/>
<path d="M52.3787 7.96356L55.9869 3.73689H52.8998L50.2767 7.20705H49.6645V0.523193H47.2129V13.309H49.6645V9.10807H50.3359L53.2934 13.0419C53.4199 13.2098 53.6187 13.309 53.83 13.309H56.5779L52.3787 7.96356Z" fill="#808080"/>
</svg>
