<svg width="36" height="40" viewBox="0 0 36 40" fill="none" xmlns="http://www.w3.org/2000/svg">
<g clip-path="url(#clip0_3611_5134)">
<path d="M26.1235 3.63636H29.7847C31.2013 3.63636 32.4001 4.92182 32.4001 6.55273V33.4473C32.4001 35.0818 31.203 36.3636 29.7792 36.3636H6.22081C4.7988 36.3636 3.6 35.0782 3.6 33.4473V6.55273C3.6 4.92 4.7988 3.63636 6.2154 3.63636H9.88741C10.1238 3.6364 10.3579 3.5894 10.5763 3.49804C10.7948 3.40669 10.9932 3.27277 11.1604 3.10393C11.3276 2.93509 11.4602 2.73464 11.5506 2.51403C11.6411 2.29342 11.6877 2.05697 11.6877 1.81818C11.6877 1.57939 11.6411 1.34294 11.5506 1.12233C11.4602 0.901719 11.3276 0.701272 11.1604 0.532435C10.9932 0.363597 10.7948 0.229677 10.5763 0.138321C10.3579 0.0469651 10.1238 -3.65359e-05 9.88741 2.13088e-08H6.2154C2.7594 2.13088e-08 0 2.95818 0 6.55273V33.4473C0 37.0364 2.7612 40 6.22081 40H29.7792C33.2407 40 36 37.0436 36 33.4473V6.55273C36 2.96364 33.2407 2.13088e-08 29.7847 2.13088e-08H26.1235C25.887 -3.65359e-05 25.6529 0.0469651 25.4345 0.138321C25.2161 0.229677 25.0176 0.363597 24.8504 0.532435C24.6833 0.701272 24.5506 0.901719 24.4602 1.12233C24.3697 1.34294 24.3231 1.57939 24.3231 1.81818C24.3231 2.05697 24.3697 2.29342 24.4602 2.51403C24.5506 2.73464 24.6833 2.93509 24.8504 3.10393C25.0176 3.27277 25.2161 3.40669 25.4345 3.49804C25.6529 3.5894 25.887 3.6364 26.1235 3.63636Z" fill="#777777"/>
<path d="M16.3638 3.63636H20.0002C20.4824 3.63629 20.9447 3.4447 21.2857 3.10373C21.6266 2.76276 21.8181 2.30035 21.8181 1.81818C21.8181 1.33602 21.6266 0.873599 21.2857 0.532631C20.9447 0.191664 20.4824 7.38372e-05 20.0002 2.13088e-08H16.3638C16.125 -3.65359e-05 15.8886 0.0469651 15.668 0.138321C15.4473 0.229677 15.2469 0.363597 15.078 0.532435C14.9091 0.701272 14.7752 0.901719 14.6838 1.12233C14.5924 1.34294 14.5454 1.57939 14.5454 1.81818C14.5454 2.05697 14.5924 2.29342 14.6838 2.51403C14.7752 2.73464 14.9091 2.93509 15.078 3.10393C15.2469 3.27277 15.4473 3.40669 15.668 3.49804C15.8886 3.5894 16.125 3.6364 16.3638 3.63636ZM10.9093 12.7273H25.4547C25.9369 12.7272 26.3993 12.5356 26.7402 12.1946C27.0811 11.8537 27.2726 11.3913 27.2726 10.9091C27.2726 10.4269 27.0811 9.96451 26.7402 9.62354C26.3993 9.28257 25.9369 9.09098 25.4547 9.09091H10.9093C10.6705 9.09087 10.434 9.13787 10.2134 9.22923C9.99278 9.32059 9.79232 9.45451 9.62345 9.62334C9.45459 9.79218 9.32064 9.99263 9.22925 10.2132C9.13786 10.4338 9.09082 10.6703 9.09082 10.9091C9.09082 11.1479 9.13786 11.3843 9.22925 11.6049C9.32064 11.8256 9.45459 12.026 9.62345 12.1948C9.79232 12.3637 9.99278 12.4976 10.2134 12.589C10.434 12.6803 10.6705 12.7273 10.9093 12.7273ZM10.9093 21.8182H25.4547C25.9369 21.8182 26.3994 21.6266 26.7404 21.2856C27.0814 20.9447 27.2729 20.4822 27.2729 20C27.2729 19.5178 27.0814 19.0553 26.7404 18.7143C26.3994 18.3734 25.9369 18.1818 25.4547 18.1818H10.9093C10.4271 18.1818 9.96461 18.3734 9.62363 18.7143C9.28266 19.0553 9.0911 19.5178 9.0911 20C9.0911 20.4822 9.28266 20.9447 9.62363 21.2856C9.96461 21.6266 10.4271 21.8182 10.9093 21.8182ZM10.9093 30.9091H25.4547C25.9369 30.909 26.3993 30.7174 26.7402 30.3765C27.0811 30.0355 27.2726 29.5731 27.2726 29.0909C27.2726 28.6087 27.0811 28.1463 26.7402 27.8054C26.3993 27.4644 25.9369 27.2728 25.4547 27.2727H10.9093C10.4271 27.2728 9.96473 27.4644 9.62381 27.8054C9.2829 28.1463 9.09138 28.6087 9.09138 29.0909C9.09138 29.5731 9.2829 30.0355 9.62381 30.3765C9.96473 30.7174 10.4271 30.909 10.9093 30.9091Z" fill="#41AF74"/>
</g>
<defs>
<clipPath id="clip0_3611_5134">
<rect width="36" height="40" fill="white"/>
</clipPath>
</defs>
</svg>
