<svg width="36" height="40" viewBox="0 0 36 40" fill="none" xmlns="http://www.w3.org/2000/svg">
<g clip-path="url(#clip0_3611_5150)">
<path d="M18.1456 23.6141C18.0345 23.6162 17.9268 23.5749 17.8449 23.4987C17.7629 23.4225 17.7129 23.3172 17.7052 23.2047C17.6033 20.9223 19.288 19.6 20.7989 18.4164C21.9946 17.4776 23.0791 16.6282 23.0791 15.4541C23.0791 13.7317 21.7444 12.7717 19.5475 12.7717C17.9833 12.7717 16.6786 13.4447 15.418 14.6776C15.3313 14.7639 15.2154 14.8134 15.094 14.8161C14.9726 14.8187 14.8548 14.7742 14.7645 14.6917L13.1493 13.1929C13.105 13.1525 13.069 13.1036 13.0435 13.0489C13.0178 12.9943 13.0033 12.935 13.0005 12.8746C12.9977 12.8142 13.0067 12.7538 13.0271 12.697C13.0475 12.6401 13.0788 12.588 13.1192 12.5435C14.8688 10.647 17.2093 9.41174 20.0203 9.41174C24.0524 9.41174 27 11.3317 27 15.087C27 17.1341 25.4984 18.2894 24.0408 19.4117C22.7014 20.4423 21.3991 21.4447 21.3342 23.0823C21.3225 23.3647 21.1117 23.6141 20.8337 23.6141H18.1456ZM22.0224 28.64C22.0224 30.1082 20.9657 31.1529 19.5753 31.1529C18.1293 31.1529 17.1004 30.1082 17.1004 28.64C17.1004 27.1717 18.1571 26.1553 19.5753 26.1553C20.9657 26.1553 22.0224 27.1717 22.0224 28.64Z" fill="#41AF74"/>
<path d="M2.25 32.9412V28.2353H1.6875C1.23995 28.2353 0.810724 28.0494 0.494256 27.7184C0.17779 27.3875 0 26.9386 0 26.4706C0 26.0026 0.17779 25.5537 0.494256 25.2228C0.810724 24.8918 1.23995 24.7059 1.6875 24.7059H2.25V16.4706H1.6875C1.23995 16.4706 0.810724 16.2847 0.494256 15.9537C0.17779 15.6228 0 15.1739 0 14.7059C0 14.2379 0.17779 13.789 0.494256 13.458C0.810724 13.1271 1.23995 12.9412 1.6875 12.9412H2.25V7.05882C2.25 5.18671 2.96116 3.39127 4.22702 2.06748C5.4929 0.743695 7.20978 0 9 0H29.2499C31.0402 0 32.7571 0.743695 34.023 2.06748C35.2888 3.39127 36 5.18671 36 7.05882V32.9412C36 34.8133 35.2888 36.6087 34.023 37.9325C32.7571 39.2563 31.0402 40 29.2499 40H9C7.20978 40 5.4929 39.2563 4.22702 37.9325C2.96116 36.6087 2.25 34.8133 2.25 32.9412ZM9 3.55294C8.55974 3.55294 8.12379 3.64362 7.71704 3.81981C7.3103 3.996 6.94072 4.25424 6.62942 4.57979C6.31811 4.90534 6.07117 5.29183 5.90269 5.71718C5.7342 6.14253 5.64749 6.59842 5.64749 7.05882V12.9412H6.1875C6.63505 12.9412 7.06427 13.1271 7.38073 13.458C7.6972 13.789 7.87499 14.2379 7.87499 14.7059C7.87499 15.1739 7.6972 15.6228 7.38073 15.9537C7.06427 16.2847 6.63505 16.4706 6.1875 16.4706H5.64749V24.7059H6.1875C6.63505 24.7059 7.06427 24.8918 7.38073 25.2228C7.6972 25.5537 7.87499 26.0026 7.87499 26.4706C7.87499 26.9386 7.6972 27.3875 7.38073 27.7184C7.06427 28.0494 6.63505 28.2353 6.1875 28.2353H5.64749V32.9412C5.64749 34.8776 7.14824 36.4471 9 36.4471H29.2499C30.1392 36.4471 30.9918 36.0777 31.6206 35.4202C32.2493 34.7627 32.6025 33.871 32.6025 32.9412V7.05882C32.6025 6.12901 32.2493 5.23727 31.6206 4.57979C30.9918 3.92231 30.1392 3.55294 29.2499 3.55294H9Z" fill="#777777"/>
</g>
<defs>
<clipPath id="clip0_3611_5150">
<rect width="36" height="40" fill="white"/>
</clipPath>
</defs>
</svg>
