<svg width="15" height="16" viewBox="0 0 15 16" fill="none" xmlns="http://www.w3.org/2000/svg">
<path fill-rule="evenodd" clip-rule="evenodd" d="M11.3256 11.3258C10.2158 12.4357 8.7105 13.0592 7.14096 13.0592C5.57141 13.0592 4.06615 12.4357 2.95631 11.3258C1.84647 10.216 1.22297 8.71074 1.22297 7.1412C1.22297 5.57165 1.84647 4.06639 2.95631 2.95655C4.06615 1.84672 5.57141 1.22322 7.14096 1.22322C8.7105 1.22322 10.2158 1.84672 11.3256 2.95655C12.4354 4.06639 13.0589 5.57165 13.0589 7.1412C13.0589 8.71074 12.4354 10.216 11.3256 11.3258ZM2.09154 12.1906C3.43073 13.5298 5.24706 14.2822 7.14096 14.2822C9.03486 14.2822 10.8512 13.5298 12.1904 12.1906C13.5296 10.8514 14.2819 9.0351 14.2819 7.1412C14.2819 5.2473 13.5296 3.43097 12.1904 2.09178C10.8512 0.752593 9.03486 0.000244141 7.14096 0.000244141C5.24706 0.000244141 3.43073 0.752593 2.09154 2.09178C0.752349 3.43097 0 5.2473 0 7.1412C0 9.0351 0.752349 10.8514 2.09154 12.1906ZM12.9841 13.2878L14.6396 15.1611C14.6396 15.1611 14.6396 15.1611 14.6396 15.1611C14.6397 15.1611 14.6397 15.1611 14.6397 15.1611C14.6872 15.2218 14.7212 15.2898 14.7395 15.3609C14.7578 15.432 14.7602 15.505 14.7464 15.5755C14.7327 15.646 14.7031 15.7126 14.6593 15.7715C14.6156 15.8304 14.5587 15.8803 14.4918 15.9184C14.4249 15.9566 14.3495 15.982 14.2699 15.9934C14.1902 16.0048 14.108 16.0019 14.0281 15.9848C13.9481 15.9677 13.8719 15.9368 13.8041 15.8939C13.7362 15.851 13.6779 15.7969 13.6327 15.7349L11.9771 13.8615C11.9295 13.8008 11.8956 13.7329 11.8772 13.6618C11.8589 13.5906 11.8566 13.5177 11.8703 13.4472C11.8841 13.3767 11.9137 13.31 11.9574 13.2511C12.0011 13.1923 12.0581 13.1423 12.125 13.1042C12.1918 13.0661 12.2673 13.0406 12.3469 13.0292C12.4265 13.0178 12.5087 13.0208 12.5887 13.0378C12.6687 13.0549 12.7448 13.0858 12.8127 13.1287C12.8806 13.1717 12.9388 13.2257 12.9841 13.2878Z" fill="#47A471"/>
</svg>
