<svg width="30" height="31" viewBox="0 0 30 31" fill="none" xmlns="http://www.w3.org/2000/svg">
<g clip-path="url(#clip0_4078_4807)">
<rect y="0.895752" width="30" height="30" rx="15" fill="#2CB34C"/>
<g clip-path="url(#clip1_4078_4807)">
<rect x="-6" y="0.895752" width="43" height="30" rx="3" fill="white"/>
<g clip-path="url(#clip2_4078_4807)">
<path d="M-15.162 0.935673C-16.3727 1.1177 -17.5834 2.31538 -17.9794 3.69571C-18.2438 4.55526 -22.9761 28.9267 -22.9978 29.3697C-23.0422 30.6458 -22.4257 31.5831 -21.4133 31.8175C-21.039 31.9218 7.93828 31.9218 8.3348 31.8175C9.47942 31.5571 10.5579 30.4897 10.9545 29.1877C11.1083 28.6928 15.995 3.85182 15.995 3.43532C16.0611 2.26355 15.4663 1.29972 14.52 0.961586C14.3005 0.90976 -14.6555 0.857302 -15.162 0.935673Z" fill="#E60012"/>
<path d="M13.7945 -3.07165C12.5854 -2.92301 11.3764 -1.94501 10.9804 -0.817848C10.7386 -0.115954 3.00225 31.4713 3.00225 31.833C2.9579 32.875 3.57352 33.6404 4.5846 33.8319C4.95841 33.917 16.9604 33.917 17.3564 33.8319C18.4995 33.6193 19.5765 32.7476 19.9725 31.6844C20.1262 31.2803 27.995 -0.690372 27.995 -1.03048C28.061 -1.98733 27.467 -2.77438 26.522 -3.05049C26.2807 -3.09281 14.2998 -3.13565 13.7945 -3.07165Z" fill="#00508E"/>
<path d="M25.8334 -2.05157C24.62 -1.90324 23.4065 -0.927254 23.0091 0.197574C22.767 0.898016 15.0023 30.4763 15.0023 30.8373C14.9577 31.8772 15.5756 32.6409 16.5903 32.832C16.9655 32.917 36.9207 32.917 37.3176 32.832C38.4648 32.6198 39.5463 31.7499 39.9432 30.689C40.0974 30.2857 47.9951 0.324786 47.9951 -0.0146189C48.0608 -0.969486 47.4652 -1.75491 46.5167 -2.03045C46.2963 -2.0938 25.2378 -2.13655 24.7302 -2.07268H25.8334V-2.05157Z" fill="#00908C"/>
<path d="M4.11338 10.959C4.11338 10.9776 4.09635 11.0897 4.0627 11.2013C3.67432 12.6535 3.28594 14.6092 3.33702 14.851C3.47203 15.5773 4.43406 15.5213 4.77135 14.7579C4.87271 14.5532 5.59838 11.1452 5.59838 10.9034C5.59838 10.8849 6.7465 10.9034 6.7465 10.9215C6.7465 10.9215 6.7465 10.9776 6.72947 11.0336C6.71244 11.0897 6.52677 11.8716 6.32447 12.8026C5.86839 14.7764 5.81771 14.9812 5.58176 15.3721C4.80541 16.6386 2.20594 16.6015 2.00324 15.3165C1.95256 15.0372 2.51 11.816 2.76297 10.9405C2.76297 10.8849 4.11297 10.922 4.11297 10.959H4.11338ZM21.3634 10.959C22.1402 11.1452 22.3766 11.8341 22.0218 12.8587C21.6675 13.8829 20.9082 14.3294 19.5748 14.3294C19.1694 14.3294 19.203 14.2549 18.9501 15.6515C18.8994 15.9123 18.8487 16.1545 18.8487 16.1916C18.8317 16.2847 17.6333 16.2847 17.6503 16.1916C18.663 11.406 18.7473 10.9965 18.7473 10.959L18.7644 10.9034H19.9794C20.9418 10.9215 21.2118 10.9215 21.3638 10.959H21.3634ZM10.9498 12.8026C11.1184 12.8397 11.2368 12.9889 11.2368 13.119C11.2368 13.5846 10.3757 13.901 10.055 13.5475C9.75097 13.1936 10.3927 12.6535 10.9498 12.8026ZM7.96191 13.1565C7.96191 13.1936 7.94528 13.2682 7.94528 13.3238L7.92826 13.3988L8.13096 13.2867C8.67096 12.9889 9.19434 13.0445 9.3634 13.4169C9.46434 13.6406 9.44732 13.7708 9.17732 15.1489C9.12664 15.3911 9.05934 15.726 9.04232 15.8937C8.97461 16.2661 9.02529 16.2476 8.41799 16.2476C7.89461 16.2476 7.89461 16.2476 7.91123 16.1916C7.91123 16.1545 7.97893 15.8567 8.04664 15.5028C8.31664 14.1807 8.33366 13.9945 8.09731 13.9945C7.96191 13.9945 7.77623 14.0876 7.75961 14.1437C7.72596 14.2738 7.4219 15.8937 7.40488 16.0429L7.37123 16.2101L6.84825 16.2476C6.2069 16.2661 6.25717 16.3217 6.39217 15.689C6.57785 14.8695 6.6792 14.2924 6.7469 13.7708C6.83123 13.2121 6.78055 13.2682 7.25326 13.1936C7.47258 13.1565 7.69191 13.119 7.75961 13.1005C7.92826 13.0445 7.96231 13.0634 7.96231 13.1565H7.96191ZM15.9796 13.138C15.9796 13.1751 15.9626 13.2497 15.9626 13.3052L15.946 13.3988L16.1487 13.2867C17.1946 12.691 17.6 13.1751 17.296 14.7019C17.2287 15.0372 17.1444 15.5213 17.0937 15.745C17.06 15.9868 17.0094 16.1916 16.9923 16.2106C16.925 16.2847 15.929 16.2661 15.946 16.2106C15.946 16.173 16.0133 15.8752 16.081 15.5398C16.368 14.1807 16.368 14.013 16.1146 14.013C15.9119 14.013 15.8106 14.0876 15.7773 14.2549C15.7263 14.46 15.4733 15.8006 15.4396 16.0429L15.406 16.2476L14.8826 16.2661C14.2413 16.2847 14.2915 16.3593 14.4436 15.6704C14.6126 14.9256 14.7306 14.2363 14.8149 13.7337C14.8826 13.2497 14.8319 13.3052 15.254 13.2311C15.4396 13.1936 15.6756 13.1565 15.7603 13.138C15.929 13.0445 15.9796 13.0634 15.9796 13.138ZM26.2255 13.119C26.2928 14.2549 26.3098 14.5902 26.3098 14.6087C26.3098 14.6277 26.4618 14.3294 26.6301 13.957C26.9678 13.2121 26.9005 13.2867 27.2718 13.2311C27.3732 13.2121 27.5759 13.1751 27.7275 13.138C28.0989 13.0634 28.0989 13.0259 27.6768 13.8454C27.1032 14.9441 26.3098 16.4894 26.0228 17.0481C25.1621 18.78 25.1621 18.78 24.436 18.7986L23.9974 18.8171L24.031 18.6869C24.048 18.6124 24.0987 18.4637 24.1153 18.3516L24.166 18.1468H24.301C24.453 18.1468 24.4867 18.1093 24.6217 17.8485C24.6724 17.7559 24.7567 17.6067 24.7908 17.5141C24.8414 17.4205 25.0097 17.1226 25.1451 16.8248L25.4151 16.3032L25.3478 15.6144C25.2635 14.8139 25.1621 13.8639 25.1114 13.585C25.0774 13.3242 25.0774 13.3242 25.3814 13.2867C25.5164 13.2686 25.7358 13.2121 25.8541 13.1936C26.1744 13.082 26.2085 13.082 26.2255 13.119ZM13.4985 13.138C14.7983 13.3988 14.3426 15.8937 12.9245 16.2476C11.9625 16.4894 11.3041 16.0799 11.3041 15.2605C11.3211 13.8268 12.2831 12.8958 13.4985 13.138ZM23.221 13.2121C23.3003 13.2571 23.3739 13.3135 23.4399 13.3798C23.5247 13.4729 23.5247 13.4729 23.5247 13.4169C23.5417 13.3428 23.5247 13.3428 24.1997 13.2311C24.7401 13.138 24.723 13.138 24.6894 13.3052C24.4701 14.348 24.284 15.2605 24.1997 15.7075C24.0821 16.3778 24.166 16.3032 23.508 16.2847H22.9502V16.2101C22.9502 16.136 22.9166 16.0985 22.8829 16.1545C22.6972 16.4894 21.7859 16.3593 21.5325 15.9498C20.9082 14.9066 22.2416 12.7095 23.2206 13.2121H23.221ZM11.1014 13.7523C11.1014 13.7523 11.1014 13.8454 11.0848 13.9199C10.9498 14.5156 10.7134 15.726 10.6627 15.9493L10.6121 16.2291L10.055 16.2472C9.39705 16.2661 9.4307 16.3032 9.5657 15.8567C9.68367 15.4282 9.80205 14.9066 9.86975 14.348C9.93705 13.8643 9.86975 13.9385 10.3591 13.8643C10.578 13.8268 10.8148 13.7898 10.8654 13.7708C11.0004 13.7337 11.0843 13.7337 11.1014 13.7527V13.7523ZM14.0556 17.6072C14.0556 17.6257 14.0219 17.7003 13.9713 17.7934C13.9372 17.8865 13.8869 17.9611 13.8869 17.9611C14.8826 17.9796 14.9167 17.9796 14.8992 18.0356L14.714 18.7059H13.2622L13.1779 18.7805C12.9922 18.9667 12.0131 19.2085 12.0131 19.0598L12.1988 18.3895H12.3338C12.5702 18.3895 12.6204 18.3335 12.8231 17.9425L12.9922 17.5886C13.8699 17.5701 14.0552 17.5886 14.0552 17.6072H14.0556ZM16.2667 17.6072C16.2667 17.6257 16.2496 17.7188 16.216 17.8309C16.1913 17.8965 16.1743 17.9653 16.1653 18.0356C16.1653 18.0356 16.2496 17.9981 16.351 17.9055C16.7223 17.6257 17.043 17.5701 17.9884 17.5701C18.3598 17.5701 18.6805 17.5701 18.6971 17.5882C18.7141 17.6257 18.1571 19.637 18.0728 19.8232C17.9544 20.0655 17.8364 20.1956 17.6511 20.2887L17.4817 20.3633L16.52 20.3814L15.5576 20.4004L15.389 21.0332C15.0513 22.244 15.0513 22.1509 15.541 22.0953C15.929 22.0578 15.9123 22.0207 15.794 22.4673L15.6926 22.8397H15.2029C14.1395 22.8582 14.0045 22.7841 14.1058 22.2996C14.1565 22.0578 15.3715 17.6261 15.3886 17.5886C15.4056 17.5701 16.2663 17.5701 16.2663 17.6072H16.2667ZM20.7059 17.6072C20.7059 17.6257 20.6888 17.6817 20.6722 17.7563C20.6215 17.9425 20.6215 17.9425 20.8409 17.8124C21.1279 17.6447 21.8029 17.5886 23.187 17.5886H23.626V17.8124C23.626 18.0727 23.643 18.0917 23.8453 18.1287L23.9974 18.1473L23.913 18.4826L23.8287 18.8176H23.5247C22.7483 18.8361 22.6299 18.7434 22.6133 18.2404V17.9981L22.5626 18.1658L22.512 18.352H22.3429C22.2586 18.352 22.1743 18.352 22.1743 18.371C22.1743 18.371 21.3472 21.406 21.2292 21.8341C21.2122 21.8716 21.2292 21.8901 21.3306 21.8901C21.4822 21.8901 21.4822 21.8901 21.432 22.0393C21.3813 22.2065 21.3813 22.2065 21.5495 22.2065C21.6679 22.2065 21.7356 22.1884 21.8199 22.1324C21.9379 22.0578 21.9379 22.0763 22.4783 21.2384L22.6972 20.8845H22.242C21.6849 20.8845 21.7356 20.922 21.8365 20.5495L21.9213 20.2512H23.0353C23.1367 19.8603 23.1703 19.7486 23.1703 19.7301C23.1703 19.7116 22.934 19.7116 22.6299 19.7116H22.0899L22.2586 19.0408H23.7776C24.6047 19.0408 25.2971 19.0408 25.2971 19.0598C25.2971 19.0784 25.2635 19.2271 25.2128 19.3952L25.128 19.7116L24.6217 19.7297L24.1153 19.7486C24.031 20.028 23.9974 20.1586 23.9803 20.1961L23.9637 20.2702H24.453C25.0271 20.2702 24.993 20.2327 24.8747 20.6051L24.7908 20.9034H23.6759L23.5072 21.1267H23.9459L24.0132 21.5737C24.0809 22.0763 24.0809 22.0763 24.3002 22.0763C24.4693 22.0763 24.4693 22.0388 24.3509 22.4858L24.2495 22.8582H23.9293C23.3718 22.8582 23.2709 22.7651 23.1691 22.1324L23.1189 21.7224L22.9161 22.0207C22.3591 22.8582 22.3255 22.8772 21.6164 22.8772C21.1607 22.8772 21.1607 22.8772 21.2284 22.7281C21.2451 22.6535 21.2451 22.6535 21.1101 22.6535C20.9751 22.6535 20.9751 22.6535 20.9414 22.7651L20.9244 22.8772H19.979L19.996 22.8212C20.0467 22.635 20.131 22.6539 19.1017 22.6539C18.2069 22.6539 18.1563 22.6539 18.1733 22.5974L18.2576 22.263C18.359 21.9272 18.3419 21.9272 18.4433 21.9272C18.5276 21.9272 18.5276 21.9272 18.5613 21.797C19.3546 18.8736 19.608 17.9425 19.6417 17.8124L19.7094 17.5701H20.1817C20.4857 17.5701 20.7047 17.5882 20.7047 17.6072H20.7059ZM14.714 19.2085L14.5279 19.8603H13.5156C13.4142 20.2327 13.3802 20.3443 13.3635 20.3819C13.3465 20.4379 13.3802 20.4379 13.8699 20.4379C14.1569 20.4379 14.3929 20.4564 14.3929 20.4564C14.3929 20.4745 14.3763 20.512 14.3592 20.5681C14.3426 20.6051 14.3085 20.7543 14.2749 20.903L14.2072 21.1452H13.1608L13.0429 21.5922C12.8738 22.225 12.8908 22.244 13.5322 22.1509C13.8022 22.1134 13.7856 22.0763 13.6672 22.5233L13.5658 22.8958H12.8568C11.7431 22.8958 11.7261 22.8582 12.0298 21.797C12.1145 21.4621 12.1988 21.1823 12.1988 21.1823C12.1988 21.1823 12.0804 21.1642 11.9118 21.1642C11.7598 21.1642 11.6248 21.1642 11.6248 21.1452C11.7431 20.6797 11.7934 20.5306 11.7934 20.4935C11.8104 20.4564 11.8441 20.4379 12.0975 20.4379H12.3845L12.5195 19.8603H12.2495C12.0468 19.8603 11.9795 19.8603 11.9795 19.8232C11.9795 19.7861 12.1311 19.246 12.1481 19.19C12.1818 19.1529 14.7306 19.1715 14.7136 19.2085H14.714ZM17.988 20.5495C17.988 20.5866 17.954 20.6987 17.9373 20.7913C17.836 21.3129 17.701 21.4246 17.161 21.4616C16.9753 21.4806 16.8063 21.4991 16.8063 21.4991C16.7726 21.5547 16.7726 22.0017 16.8063 22.0763L16.8569 22.1509L17.1946 22.1324C17.3803 22.1134 17.5323 22.1134 17.5323 22.1134C17.5323 22.1509 17.3467 22.8026 17.3296 22.8212C17.296 22.8582 16.2663 22.8397 16.1313 22.7841C15.9286 22.7095 15.9286 22.7281 15.9456 21.5547L15.9622 20.531H16.8233V20.922H16.9919C17.1776 20.922 17.1946 20.903 17.279 20.6426L17.3296 20.4935H17.6673C17.971 20.512 18.0046 20.512 17.9876 20.5495H17.988ZM19.5744 12.5798L19.3887 13.4734H19.6421C20.9418 13.5109 21.4818 11.8535 20.2157 11.7419C20.013 11.7229 19.8278 11.7043 19.8107 11.7043C19.7601 11.7043 19.7601 11.7604 19.5748 12.5798H19.5744ZM12.8568 13.8458C12.5357 13.995 12.2325 15.3355 12.4854 15.5407C12.6711 15.708 12.9411 15.4286 13.0761 14.9631C13.2954 14.1066 13.2277 13.6967 12.8564 13.8458H12.8568ZM22.9166 13.9389C22.5788 14.1251 22.3259 15.4472 22.5788 15.5963C22.9166 15.8011 23.3556 15.0937 23.3556 14.3299C23.3556 13.976 23.1699 13.8087 22.9166 13.9389ZM16.0976 18.371L16.0129 18.7059C15.9622 18.8736 15.9286 19.0223 15.9115 19.0408C15.9115 19.0598 15.9963 19.0228 16.1142 18.9482C16.4519 18.762 16.5533 18.7245 17.0426 18.7059L17.4646 18.6874C17.5323 18.4641 17.549 18.371 17.549 18.352C17.566 18.3339 16.1142 18.3339 16.0976 18.371ZM15.8106 19.4508L15.7429 19.7491L17.1942 19.7301L17.279 19.4318C16.1313 19.4318 15.8106 19.4318 15.8106 19.4508ZM20.4018 18.7805C20.3341 19.0228 20.2834 19.2085 20.3005 19.2085L20.5032 19.1344C20.6045 19.0969 20.7898 19.0408 20.8911 19.0228C20.9925 19.0038 21.0768 18.9852 21.0938 18.9852C21.0938 18.9852 21.2625 18.4081 21.2625 18.3895C21.2625 18.3895 21.0938 18.371 20.8911 18.371H20.5198L20.4014 18.7805H20.4018ZM20.1314 19.7297C20.1314 19.7486 20.0641 19.9348 20.0134 20.1586C19.9708 20.3002 19.9314 20.4429 19.8951 20.5866C19.8951 20.6051 19.9794 20.5681 20.0978 20.512C20.2157 20.4564 20.3848 20.4004 20.4861 20.3819C20.7051 20.3443 20.7221 20.3263 20.7391 20.2327C20.7561 20.1956 20.7898 20.0465 20.8234 19.9348L20.8911 19.7116H20.5198C20.3171 19.7116 20.1314 19.7116 20.1314 19.7297ZM19.5407 21.8716L20.2834 21.8901C20.4355 21.3315 20.4861 21.1452 20.4861 21.1263L19.7434 21.0897L19.5407 21.8716Z" fill="white"/>
</g>
</g>
</g>
<defs>
<clipPath id="clip0_4078_4807">
<rect y="0.895752" width="30" height="30" rx="15" fill="white"/>
</clipPath>
<clipPath id="clip1_4078_4807">
<rect x="-6" y="0.895752" width="43" height="30" rx="3" fill="white"/>
</clipPath>
<clipPath id="clip2_4078_4807">
<rect width="42" height="30" fill="white" transform="translate(-6 0.895752)"/>
</clipPath>
</defs>
</svg>
