<svg width="30" height="31" viewBox="0 0 30 31" fill="none" xmlns="http://www.w3.org/2000/svg">
<rect y="0.895752" width="30" height="30" rx="15" fill="#2CB34C"/>
<path d="M12.8927 17.899C12.8149 17.9407 12.7277 17.9614 12.6397 17.959C12.5399 17.9591 12.4419 17.9323 12.3559 17.8815C12.2698 17.8306 12.1987 17.7576 12.15 17.6698L12.1167 17.5846L10.5806 14.1899C10.5615 14.147 10.5532 14.0999 10.5566 14.053C10.5599 14.0061 10.5749 13.9607 10.6 13.9211C10.6251 13.8814 10.6596 13.8487 10.7004 13.8258C10.7412 13.803 10.787 13.7907 10.8336 13.7902C10.8931 13.7902 10.952 13.8072 11.0027 13.8495L12.8081 15.1428C12.9185 15.2141 13.0437 15.2588 13.174 15.2736C13.3043 15.2884 13.4362 15.2728 13.5596 15.228L22.0813 11.3995C20.554 9.58726 18.0396 8.39575 15.1872 8.39575C10.5299 8.39634 6.75 11.5706 6.75 15.4837C6.75 17.6192 7.88911 19.542 9.66947 20.8434C9.74246 20.8954 9.80203 20.9643 9.84321 21.0443C9.88438 21.1242 9.90597 21.213 9.90616 21.3031C9.90616 21.3625 9.88867 21.4219 9.87234 21.4818C9.72894 22.0179 9.501 22.8685 9.49225 22.9108C9.47535 22.979 9.45028 23.0472 9.45028 23.1154C9.45028 23.2682 9.57678 23.3958 9.72894 23.3958C9.78723 23.3958 9.83853 23.3705 9.88925 23.3446L11.7454 22.2901C11.8794 22.2057 12.0345 22.1614 12.1925 22.1625C12.2771 22.1625 12.3616 22.1796 12.4374 22.1966C13.2978 22.4435 14.2259 22.5875 15.1878 22.5875C19.8457 22.5875 23.625 19.4144 23.625 15.5007C23.625 14.318 23.2793 13.1953 22.6631 12.2166L12.9516 17.8655L12.8933 17.8996L12.8927 17.899Z" fill="white"/>
</svg>
