<svg width="104" height="104" viewBox="0 0 104 104" fill="none" xmlns="http://www.w3.org/2000/svg">
<rect width="104" height="104" rx="52" fill="#1678FF"/>
<path d="M84.5666 64.0089C80.8784 62.7714 76.1576 60.8866 70.7728 58.8875C74.1484 52.7847 76.675 46.2216 78.2783 39.3916H60.575V32.8232H82.2615V29.1486H60.575V18.2012H51.7233C51.5186 18.1935 51.3144 18.2288 51.1233 18.3049C50.9321 18.3811 50.758 18.4966 50.6114 18.6444C50.4648 18.7922 50.3488 18.9692 50.2705 19.1646C50.1922 19.3601 50.1532 19.57 50.1558 19.7815V29.1486H28.2111V32.8232H50.1558V39.3916H32.0468V43.0471H67.0846C65.8421 47.4656 64.1483 51.7352 62.0318 55.7841C50.6353 51.9763 38.4642 48.7587 30.8113 50.7007C27.0069 51.4567 23.5404 53.4598 20.9269 56.4124C12.4441 67.0361 18.5296 83.2002 36.4542 83.2002C47.0577 83.2002 57.274 77.1077 65.1852 67.0933C76.9874 72.9192 100.352 82.9527 100.352 82.9527V68.7687C100.352 68.7687 97.5122 68.4831 84.5666 64.0089ZM34.8683 77.0697C20.9085 77.0697 16.7592 65.7415 23.6746 59.5348C26.2495 57.625 29.2755 56.4674 32.4341 56.1839C40.7325 55.3462 48.4224 58.6019 57.4953 63.1522C51.1701 71.7197 43.0007 77.0697 34.8683 77.0697Z" fill="white"/>
</svg>
